<svg width="599" height="374" viewBox="0 0 599 374" fill="none" xmlns="http://www.w3.org/2000/svg">
<path d="M227.067 25.05H242.067V10.05H227.067V25.05ZM250.973 24H247.607V13.0909H251.122C252.181 13.0909 253.086 13.3093 253.839 13.7461C254.592 14.1793 255.169 14.8026 255.57 15.6158C255.971 16.4254 256.172 17.3949 256.172 18.5241C256.172 19.6605 255.97 20.6388 255.565 21.4592C255.16 22.2759 254.57 22.9045 253.796 23.3448C253.022 23.7816 252.081 24 250.973 24ZM248.928 22.8281H250.888C251.79 22.8281 252.537 22.6541 253.13 22.3061C253.723 21.9581 254.166 21.4627 254.457 20.82C254.748 20.1772 254.894 19.4119 254.894 18.5241C254.894 17.6435 254.75 16.8853 254.462 16.2496C254.174 15.6104 253.745 15.1204 253.173 14.7795C252.601 14.435 251.889 14.2628 251.037 14.2628H248.928V22.8281ZM261.648 24.1705C260.86 24.1705 260.179 23.9964 259.608 23.6484C259.04 23.2969 258.601 22.8068 258.292 22.1783C257.987 21.5462 257.834 20.8111 257.834 19.973C257.834 19.1349 257.987 18.3963 258.292 17.7571C258.601 17.1143 259.031 16.6136 259.581 16.255C260.135 15.8928 260.781 15.7116 261.52 15.7116C261.946 15.7116 262.367 15.7827 262.782 15.9247C263.198 16.0668 263.576 16.2976 263.917 16.6172C264.258 16.9332 264.53 17.3523 264.732 17.8743C264.934 18.3963 265.036 19.0391 265.036 19.8026V20.3352H258.729V19.2486H263.757C263.757 18.7869 263.665 18.375 263.48 18.0128C263.299 17.6506 263.04 17.3647 262.703 17.1552C262.369 16.9457 261.975 16.8409 261.52 16.8409C261.019 16.8409 260.586 16.9652 260.22 17.2138C259.858 17.4588 259.579 17.7784 259.384 18.1726C259.189 18.5668 259.091 18.9893 259.091 19.4403V20.1648C259.091 20.7827 259.198 21.3065 259.411 21.7362C259.627 22.1623 259.927 22.4872 260.311 22.7109C260.694 22.9311 261.14 23.0412 261.648 23.0412C261.978 23.0412 262.276 22.995 262.543 22.9027C262.813 22.8068 263.045 22.6648 263.241 22.4766C263.436 22.2848 263.587 22.0469 263.693 21.7628L264.908 22.1037C264.78 22.5156 264.565 22.8778 264.263 23.1903C263.961 23.4993 263.589 23.7408 263.145 23.9148C262.701 24.0852 262.202 24.1705 261.648 24.1705ZM270.591 15.8182V16.8835H266.181V15.8182H270.591ZM267.502 24V14.6889C267.502 14.2202 267.612 13.8295 267.832 13.517C268.052 13.2045 268.338 12.9702 268.69 12.8139C269.041 12.6577 269.412 12.5795 269.803 12.5795C270.112 12.5795 270.364 12.6044 270.559 12.6541C270.755 12.7038 270.9 12.75 270.996 12.7926L270.634 13.8793C270.57 13.858 270.481 13.8313 270.368 13.7994C270.258 13.7674 270.112 13.7514 269.931 13.7514C269.515 13.7514 269.215 13.8562 269.031 14.0657C268.85 14.2752 268.759 14.5824 268.759 14.9872V24H267.502ZM272.353 24V15.8182H273.61V24H272.353ZM272.992 14.4545C272.747 14.4545 272.536 14.3711 272.359 14.2042C272.185 14.0373 272.098 13.8366 272.098 13.6023C272.098 13.3679 272.185 13.1673 272.359 13.0004C272.536 12.8335 272.747 12.75 272.992 12.75C273.237 12.75 273.447 12.8335 273.621 13.0004C273.799 13.1673 273.887 13.3679 273.887 13.6023C273.887 13.8366 273.799 14.0373 273.621 14.2042C273.447 14.3711 273.237 14.4545 272.992 14.4545ZM277.17 19.0781V24H275.913V15.8182H277.127V17.0966H277.234C277.426 16.6811 277.717 16.3473 278.107 16.0952C278.498 15.8395 279.002 15.7116 279.62 15.7116C280.174 15.7116 280.659 15.8253 281.074 16.0526C281.49 16.2763 281.813 16.6172 282.044 17.0753C282.275 17.5298 282.39 18.1051 282.39 18.8011V24H281.133V18.8864C281.133 18.2436 280.966 17.7429 280.632 17.3842C280.298 17.022 279.84 16.8409 279.258 16.8409C278.857 16.8409 278.498 16.9279 278.182 17.1019C277.869 17.2759 277.623 17.5298 277.442 17.8636C277.26 18.1974 277.17 18.6023 277.17 19.0781ZM288.118 24.1705C287.329 24.1705 286.649 23.9964 286.077 23.6484C285.509 23.2969 285.071 22.8068 284.762 22.1783C284.456 21.5462 284.304 20.8111 284.304 19.973C284.304 19.1349 284.456 18.3963 284.762 17.7571C285.071 17.1143 285.5 16.6136 286.051 16.255C286.605 15.8928 287.251 15.7116 287.99 15.7116C288.416 15.7116 288.837 15.7827 289.252 15.9247C289.668 16.0668 290.046 16.2976 290.387 16.6172C290.728 16.9332 290.999 17.3523 291.202 17.8743C291.404 18.3963 291.505 19.0391 291.505 19.8026V20.3352H285.199V19.2486H290.227C290.227 18.7869 290.135 18.375 289.95 18.0128C289.769 17.6506 289.51 17.3647 289.172 17.1552C288.838 16.9457 288.444 16.8409 287.99 16.8409C287.489 16.8409 287.056 16.9652 286.69 17.2138C286.328 17.4588 286.049 17.7784 285.854 18.1726C285.658 18.5668 285.561 18.9893 285.561 19.4403V20.1648C285.561 20.7827 285.667 21.3065 285.88 21.7362C286.097 22.1623 286.397 22.4872 286.781 22.7109C287.164 22.9311 287.61 23.0412 288.118 23.0412C288.448 23.0412 288.746 22.995 289.012 22.9027C289.282 22.8068 289.515 22.6648 289.71 22.4766C289.906 22.2848 290.057 22.0469 290.163 21.7628L291.378 22.1037C291.25 22.5156 291.035 22.8778 290.733 23.1903C290.431 23.4993 290.058 23.7408 289.614 23.9148C289.17 24.0852 288.672 24.1705 288.118 24.1705ZM297.807 24V13.0909H301.493C302.349 13.0909 303.048 13.2454 303.592 13.5543C304.139 13.8597 304.543 14.2734 304.806 14.7955C305.069 15.3175 305.2 15.8999 305.2 16.5426C305.2 17.1854 305.069 17.7695 304.806 18.2951C304.547 18.8207 304.146 19.2397 303.602 19.5522C303.059 19.8612 302.363 20.0156 301.514 20.0156H298.872V18.8438H301.472C302.058 18.8438 302.528 18.7425 302.883 18.5401C303.238 18.3377 303.496 18.0643 303.656 17.7198C303.819 17.3718 303.901 16.9794 303.901 16.5426C303.901 16.1058 303.819 15.7152 303.656 15.3707C303.496 15.0263 303.237 14.7564 302.878 14.5611C302.519 14.3622 302.043 14.2628 301.45 14.2628H299.128V24H297.807ZM307.158 24V15.8182H308.372V17.054H308.458C308.607 16.6491 308.877 16.3207 309.267 16.0685C309.658 15.8164 310.098 15.6903 310.588 15.6903C310.681 15.6903 310.796 15.6921 310.935 15.6957C311.073 15.6992 311.178 15.7045 311.249 15.7116V16.9901C311.206 16.9794 311.109 16.9634 310.956 16.9421C310.807 16.9173 310.649 16.9048 310.482 16.9048C310.084 16.9048 309.729 16.9883 309.416 17.1552C309.107 17.3185 308.862 17.5458 308.681 17.837C308.504 18.1246 308.415 18.4531 308.415 18.8224V24H307.158ZM315.814 24.1705C315.075 24.1705 314.427 23.9947 313.87 23.6431C313.316 23.2915 312.882 22.7997 312.57 22.1676C312.261 21.5355 312.106 20.7969 312.106 19.9517C312.106 19.0994 312.261 18.3555 312.57 17.7198C312.882 17.0842 313.316 16.5906 313.87 16.239C314.427 15.8874 315.075 15.7116 315.814 15.7116C316.552 15.7116 317.199 15.8874 317.753 16.239C318.31 16.5906 318.743 17.0842 319.052 17.7198C319.365 18.3555 319.521 19.0994 319.521 19.9517C319.521 20.7969 319.365 21.5355 319.052 22.1676C318.743 22.7997 318.31 23.2915 317.753 23.6431C317.199 23.9947 316.552 24.1705 315.814 24.1705ZM315.814 23.0412C316.375 23.0412 316.837 22.8974 317.199 22.6097C317.561 22.3221 317.829 21.9439 318.003 21.4751C318.177 21.0064 318.264 20.4986 318.264 19.9517C318.264 19.4048 318.177 18.8952 318.003 18.4229C317.829 17.9506 317.561 17.5689 317.199 17.2777C316.837 16.9865 316.375 16.8409 315.814 16.8409C315.253 16.8409 314.791 16.9865 314.429 17.2777C314.067 17.5689 313.799 17.9506 313.625 18.4229C313.451 18.8952 313.364 19.4048 313.364 19.9517C313.364 20.4986 313.451 21.0064 313.625 21.4751C313.799 21.9439 314.067 22.3221 314.429 22.6097C314.791 22.8974 315.253 23.0412 315.814 23.0412ZM321.611 24V13.0909H322.868V17.1179H322.974C323.067 16.9759 323.194 16.7947 323.358 16.5746C323.525 16.3509 323.763 16.152 324.072 15.978C324.384 15.8004 324.807 15.7116 325.339 15.7116C326.028 15.7116 326.635 15.8839 327.161 16.2283C327.687 16.5728 328.097 17.0611 328.391 17.6932C328.686 18.3253 328.834 19.071 328.834 19.9304C328.834 20.7969 328.686 21.5479 328.391 22.1836C328.097 22.8157 327.688 23.3058 327.166 23.6538C326.644 23.9982 326.042 24.1705 325.361 24.1705C324.835 24.1705 324.414 24.0835 324.098 23.9094C323.782 23.7319 323.539 23.5312 323.368 23.3075C323.198 23.0803 323.067 22.892 322.974 22.7429H322.825V24H321.611ZM322.846 19.9091C322.846 20.527 322.937 21.0721 323.118 21.5444C323.299 22.0131 323.564 22.3807 323.912 22.647C324.26 22.9098 324.686 23.0412 325.19 23.0412C325.716 23.0412 326.154 22.9027 326.506 22.6257C326.861 22.3452 327.127 21.9687 327.305 21.4964C327.486 21.0206 327.576 20.4915 327.576 19.9091C327.576 19.3338 327.488 18.8153 327.31 18.3537C327.136 17.8885 326.872 17.521 326.516 17.2511C326.165 16.9776 325.723 16.8409 325.19 16.8409C324.679 16.8409 324.249 16.9705 323.901 17.2298C323.553 17.4854 323.29 17.8441 323.113 18.3058C322.935 18.7638 322.846 19.2983 322.846 19.9091ZM332.014 13.0909V24H330.757V13.0909H332.014ZM337.746 24.1705C336.958 24.1705 336.278 23.9964 335.706 23.6484C335.138 23.2969 334.7 22.8068 334.391 22.1783C334.085 21.5462 333.933 20.8111 333.933 19.973C333.933 19.1349 334.085 18.3963 334.391 17.7571C334.7 17.1143 335.129 16.6136 335.68 16.255C336.234 15.8928 336.88 15.7116 337.619 15.7116C338.045 15.7116 338.466 15.7827 338.881 15.9247C339.297 16.0668 339.675 16.2976 340.016 16.6172C340.357 16.9332 340.628 17.3523 340.831 17.8743C341.033 18.3963 341.134 19.0391 341.134 19.8026V20.3352H334.827V19.2486H339.856C339.856 18.7869 339.764 18.375 339.579 18.0128C339.398 17.6506 339.139 17.3647 338.801 17.1552C338.467 16.9457 338.073 16.8409 337.619 16.8409C337.118 16.8409 336.685 16.9652 336.319 17.2138C335.957 17.4588 335.678 17.7784 335.483 18.1726C335.287 18.5668 335.19 18.9893 335.19 19.4403V20.1648C335.19 20.7827 335.296 21.3065 335.509 21.7362C335.726 22.1623 336.026 22.4872 336.409 22.7109C336.793 22.9311 337.239 23.0412 337.746 23.0412C338.077 23.0412 338.375 22.995 338.641 22.9027C338.911 22.8068 339.144 22.6648 339.339 22.4766C339.534 22.2848 339.685 22.0469 339.792 21.7628L341.006 22.1037C340.879 22.5156 340.664 22.8778 340.362 23.1903C340.06 23.4993 339.687 23.7408 339.243 23.9148C338.799 24.0852 338.3 24.1705 337.746 24.1705ZM343.047 24V15.8182H344.261V17.0966H344.368C344.538 16.6598 344.813 16.3207 345.193 16.0792C345.573 15.8342 346.03 15.7116 346.562 15.7116C347.102 15.7116 347.551 15.8342 347.91 16.0792C348.272 16.3207 348.554 16.6598 348.757 17.0966H348.842C349.052 16.674 349.366 16.3384 349.785 16.0898C350.204 15.8377 350.706 15.7116 351.292 15.7116C352.024 15.7116 352.622 15.9407 353.087 16.3988C353.553 16.8533 353.785 17.5618 353.785 18.5241V24H352.528V18.5241C352.528 17.9205 352.363 17.489 352.033 17.2298C351.702 16.9705 351.314 16.8409 350.866 16.8409C350.291 16.8409 349.845 17.0149 349.529 17.3629C349.213 17.7074 349.055 18.1442 349.055 18.6733V24H347.777V18.3963C347.777 17.9311 347.626 17.5565 347.324 17.2724C347.022 16.9847 346.633 16.8409 346.157 16.8409C345.831 16.8409 345.525 16.9279 345.241 17.1019C344.961 17.2759 344.733 17.5174 344.559 17.8263C344.389 18.1317 344.304 18.4851 344.304 18.8864V24H343.047Z" fill="#222222"/>
<path d="M443.439 128.05H458.439V113.05H443.439V128.05ZM465.96 127L462.977 116.091H464.32L466.599 124.976H466.706L469.028 116.091H470.52L472.842 124.976H472.949L475.229 116.091H476.571L473.588 127H472.224L469.817 118.307H469.732L467.324 127H465.96ZM478.047 127V118.818H479.304V127H478.047ZM478.686 117.455C478.441 117.455 478.229 117.371 478.052 117.204C477.878 117.037 477.791 116.837 477.791 116.602C477.791 116.368 477.878 116.167 478.052 116C478.229 115.833 478.441 115.75 478.686 115.75C478.931 115.75 479.14 115.833 479.314 116C479.492 116.167 479.581 116.368 479.581 116.602C479.581 116.837 479.492 117.037 479.314 117.204C479.14 117.371 478.931 117.455 478.686 117.455ZM481.606 127V118.818H482.821V120.054H482.906C483.055 119.649 483.325 119.321 483.716 119.069C484.106 118.816 484.546 118.69 485.037 118.69C485.129 118.69 485.244 118.692 485.383 118.696C485.521 118.699 485.626 118.705 485.697 118.712V119.99C485.654 119.979 485.557 119.963 485.404 119.942C485.255 119.917 485.097 119.905 484.93 119.905C484.532 119.905 484.177 119.988 483.865 120.155C483.556 120.319 483.311 120.546 483.13 120.837C482.952 121.125 482.863 121.453 482.863 121.822V127H481.606ZM490.369 127.17C489.58 127.17 488.9 126.996 488.328 126.648C487.76 126.297 487.322 125.807 487.013 125.178C486.707 124.546 486.555 123.811 486.555 122.973C486.555 122.135 486.707 121.396 487.013 120.757C487.322 120.114 487.751 119.614 488.302 119.255C488.856 118.893 489.502 118.712 490.241 118.712C490.667 118.712 491.088 118.783 491.503 118.925C491.919 119.067 492.297 119.298 492.638 119.617C492.979 119.933 493.25 120.352 493.453 120.874C493.655 121.396 493.756 122.039 493.756 122.803V123.335H487.45V122.249H492.478C492.478 121.787 492.386 121.375 492.201 121.013C492.02 120.651 491.761 120.365 491.423 120.155C491.089 119.946 490.695 119.841 490.241 119.841C489.74 119.841 489.307 119.965 488.941 120.214C488.579 120.459 488.3 120.778 488.105 121.173C487.909 121.567 487.812 121.989 487.812 122.44V123.165C487.812 123.783 487.918 124.306 488.131 124.736C488.348 125.162 488.648 125.487 489.032 125.711C489.415 125.931 489.861 126.041 490.369 126.041C490.699 126.041 490.997 125.995 491.263 125.903C491.533 125.807 491.766 125.665 491.961 125.477C492.157 125.285 492.307 125.047 492.414 124.763L493.629 125.104C493.501 125.516 493.286 125.878 492.984 126.19C492.682 126.499 492.309 126.741 491.865 126.915C491.421 127.085 490.923 127.17 490.369 127.17ZM499.312 118.818V119.884H494.902V118.818H499.312ZM496.223 127V117.689C496.223 117.22 496.333 116.83 496.553 116.517C496.773 116.205 497.059 115.97 497.41 115.814C497.762 115.658 498.133 115.58 498.524 115.58C498.833 115.58 499.085 115.604 499.28 115.654C499.475 115.704 499.621 115.75 499.717 115.793L499.355 116.879C499.291 116.858 499.202 116.831 499.088 116.799C498.978 116.767 498.833 116.751 498.652 116.751C498.236 116.751 497.936 116.856 497.751 117.066C497.57 117.275 497.48 117.582 497.48 117.987V127H496.223ZM501.074 127V118.818H502.288V120.054H502.374C502.523 119.649 502.793 119.321 503.183 119.069C503.574 118.816 504.014 118.69 504.504 118.69C504.597 118.69 504.712 118.692 504.851 118.696C504.989 118.699 505.094 118.705 505.165 118.712V119.99C505.122 119.979 505.025 119.963 504.872 119.942C504.723 119.917 504.565 119.905 504.398 119.905C504 119.905 503.645 119.988 503.332 120.155C503.023 120.319 502.778 120.546 502.597 120.837C502.42 121.125 502.331 121.453 502.331 121.822V127H501.074ZM509.063 127.192C508.544 127.192 508.074 127.094 507.651 126.899C507.228 126.7 506.893 126.414 506.644 126.041C506.396 125.665 506.271 125.21 506.271 124.678C506.271 124.209 506.364 123.829 506.548 123.538C506.733 123.243 506.98 123.012 507.289 122.845C507.598 122.678 507.939 122.554 508.312 122.472C508.688 122.387 509.066 122.32 509.446 122.27C509.943 122.206 510.346 122.158 510.655 122.126C510.968 122.091 511.195 122.032 511.337 121.95C511.483 121.869 511.556 121.727 511.556 121.524V121.482C511.556 120.956 511.412 120.548 511.124 120.256C510.84 119.965 510.409 119.82 509.83 119.82C509.23 119.82 508.759 119.951 508.418 120.214C508.077 120.477 507.837 120.757 507.699 121.055L506.506 120.629C506.719 120.132 507.003 119.745 507.358 119.468C507.717 119.187 508.107 118.992 508.53 118.882C508.956 118.768 509.375 118.712 509.787 118.712C510.05 118.712 510.352 118.744 510.693 118.808C511.037 118.868 511.369 118.994 511.689 119.186C512.012 119.377 512.28 119.667 512.493 120.054C512.706 120.441 512.813 120.96 512.813 121.609V127H511.556V125.892H511.492C511.406 126.07 511.264 126.26 511.065 126.462C510.867 126.664 510.602 126.837 510.272 126.979C509.942 127.121 509.538 127.192 509.063 127.192ZM509.254 126.062C509.752 126.062 510.171 125.965 510.511 125.77C510.856 125.574 511.115 125.322 511.289 125.013C511.467 124.704 511.556 124.379 511.556 124.038V122.888C511.502 122.952 511.385 123.01 511.204 123.064C511.026 123.113 510.82 123.158 510.586 123.197C510.355 123.232 510.13 123.264 509.91 123.293C509.693 123.317 509.517 123.339 509.382 123.357C509.056 123.399 508.75 123.468 508.466 123.564C508.186 123.657 507.958 123.797 507.784 123.985C507.614 124.17 507.529 124.422 507.529 124.741C507.529 125.178 507.69 125.509 508.013 125.732C508.34 125.952 508.754 126.062 509.254 126.062ZM515.107 127V118.818H516.322V120.097H516.428C516.599 119.66 516.874 119.321 517.254 119.079C517.634 118.834 518.09 118.712 518.623 118.712C519.163 118.712 519.612 118.834 519.97 119.079C520.333 119.321 520.615 119.66 520.817 120.097H520.903C521.112 119.674 521.426 119.338 521.845 119.09C522.264 118.838 522.767 118.712 523.353 118.712C524.084 118.712 524.683 118.941 525.148 119.399C525.613 119.853 525.846 120.562 525.846 121.524V127H524.589V121.524C524.589 120.92 524.424 120.489 524.093 120.23C523.763 119.971 523.374 119.841 522.927 119.841C522.351 119.841 521.906 120.015 521.59 120.363C521.274 120.707 521.116 121.144 521.116 121.673V127H519.837V121.396C519.837 120.931 519.686 120.556 519.384 120.272C519.083 119.985 518.694 119.841 518.218 119.841C517.891 119.841 517.586 119.928 517.302 120.102C517.021 120.276 516.794 120.517 516.62 120.826C516.449 121.132 516.364 121.485 516.364 121.886V127H515.107ZM531.575 127.17C530.786 127.17 530.106 126.996 529.534 126.648C528.966 126.297 528.528 125.807 528.219 125.178C527.913 124.546 527.761 123.811 527.761 122.973C527.761 122.135 527.913 121.396 528.219 120.757C528.528 120.114 528.957 119.614 529.508 119.255C530.062 118.893 530.708 118.712 531.447 118.712C531.873 118.712 532.294 118.783 532.709 118.925C533.125 119.067 533.503 119.298 533.844 119.617C534.185 119.933 534.456 120.352 534.659 120.874C534.861 121.396 534.962 122.039 534.962 122.803V123.335H528.656V122.249H533.684C533.684 121.787 533.592 121.375 533.407 121.013C533.226 120.651 532.967 120.365 532.629 120.155C532.295 119.946 531.901 119.841 531.447 119.841C530.946 119.841 530.513 119.965 530.147 120.214C529.785 120.459 529.506 120.778 529.311 121.173C529.115 121.567 529.018 121.989 529.018 122.44V123.165C529.018 123.783 529.124 124.306 529.337 124.736C529.554 125.162 529.854 125.487 530.238 125.711C530.621 125.931 531.067 126.041 531.575 126.041C531.905 126.041 532.203 125.995 532.47 125.903C532.739 125.807 532.972 125.665 533.167 125.477C533.363 125.285 533.514 125.047 533.62 124.763L534.835 125.104C534.707 125.516 534.492 125.878 534.19 126.19C533.888 126.499 533.515 126.741 533.071 126.915C532.628 127.085 532.129 127.17 531.575 127.17ZM542.67 120.651L541.541 120.97C541.47 120.782 541.365 120.599 541.227 120.422C541.092 120.24 540.907 120.091 540.673 119.974C540.438 119.857 540.138 119.798 539.772 119.798C539.272 119.798 538.854 119.914 538.521 120.145C538.19 120.372 538.025 120.661 538.025 121.013C538.025 121.325 538.139 121.572 538.366 121.753C538.593 121.934 538.949 122.085 539.432 122.206L540.646 122.504C541.378 122.682 541.923 122.953 542.281 123.319C542.64 123.681 542.819 124.148 542.819 124.72C542.819 125.189 542.684 125.608 542.414 125.977C542.148 126.347 541.775 126.638 541.296 126.851C540.816 127.064 540.259 127.17 539.623 127.17C538.789 127.17 538.098 126.989 537.551 126.627C537.004 126.265 536.658 125.736 536.512 125.04L537.706 124.741C537.819 125.182 538.034 125.512 538.35 125.732C538.67 125.952 539.087 126.062 539.602 126.062C540.188 126.062 540.653 125.938 540.998 125.69C541.346 125.437 541.52 125.136 541.52 124.784C541.52 124.5 541.42 124.262 541.221 124.07C541.022 123.875 540.717 123.729 540.305 123.634L538.941 123.314C538.192 123.136 537.642 122.861 537.29 122.488C536.942 122.112 536.768 121.641 536.768 121.077C536.768 120.615 536.898 120.207 537.157 119.852C537.42 119.496 537.777 119.218 538.228 119.015C538.682 118.813 539.197 118.712 539.772 118.712C540.582 118.712 541.218 118.889 541.679 119.244C542.145 119.599 542.475 120.068 542.67 120.651Z" fill="#222222"/>
<path d="M443.424 266.05H458.424V251.05H443.424V266.05ZM463.964 265V254.091H467.65C468.506 254.091 469.206 254.245 469.749 254.554C470.296 254.86 470.701 255.273 470.963 255.795C471.226 256.317 471.358 256.9 471.358 257.543C471.358 258.185 471.226 258.77 470.963 259.295C470.704 259.821 470.303 260.24 469.76 260.552C469.216 260.861 468.52 261.016 467.671 261.016H465.029V259.844H467.629C468.215 259.844 468.685 259.743 469.04 259.54C469.396 259.338 469.653 259.064 469.813 258.72C469.976 258.372 470.058 257.979 470.058 257.543C470.058 257.106 469.976 256.715 469.813 256.371C469.653 256.026 469.394 255.756 469.035 255.561C468.676 255.362 468.201 255.263 467.608 255.263H465.285V265H463.964ZM473.315 265V256.818H474.53V258.054H474.615C474.764 257.649 475.034 257.321 475.424 257.069C475.815 256.816 476.255 256.69 476.746 256.69C476.838 256.69 476.953 256.692 477.092 256.696C477.23 256.699 477.335 256.705 477.406 256.712V257.99C477.363 257.979 477.266 257.963 477.113 257.942C476.964 257.917 476.806 257.905 476.639 257.905C476.241 257.905 475.886 257.988 475.574 258.155C475.265 258.319 475.02 258.546 474.839 258.837C474.661 259.125 474.572 259.453 474.572 259.822V265H473.315ZM481.971 265.17C481.232 265.17 480.584 264.995 480.027 264.643C479.473 264.292 479.04 263.8 478.727 263.168C478.418 262.536 478.264 261.797 478.264 260.952C478.264 260.099 478.418 259.355 478.727 258.72C479.04 258.084 479.473 257.591 480.027 257.239C480.584 256.887 481.232 256.712 481.971 256.712C482.71 256.712 483.356 256.887 483.91 257.239C484.467 257.591 484.901 258.084 485.21 258.72C485.522 259.355 485.678 260.099 485.678 260.952C485.678 261.797 485.522 262.536 485.21 263.168C484.901 263.8 484.467 264.292 483.91 264.643C483.356 264.995 482.71 265.17 481.971 265.17ZM481.971 264.041C482.532 264.041 482.994 263.897 483.356 263.61C483.718 263.322 483.986 262.944 484.16 262.475C484.334 262.006 484.421 261.499 484.421 260.952C484.421 260.405 484.334 259.895 484.16 259.423C483.986 258.951 483.718 258.569 483.356 258.278C482.994 257.987 482.532 257.841 481.971 257.841C481.41 257.841 480.948 257.987 480.586 258.278C480.224 258.569 479.956 258.951 479.782 259.423C479.608 259.895 479.521 260.405 479.521 260.952C479.521 261.499 479.608 262.006 479.782 262.475C479.956 262.944 480.224 263.322 480.586 263.61C480.948 263.897 481.41 264.041 481.971 264.041ZM491.156 256.818V257.884H486.916V256.818H491.156ZM488.151 254.858H489.408V262.656C489.408 263.011 489.46 263.278 489.563 263.455C489.669 263.629 489.804 263.746 489.968 263.807C490.135 263.864 490.31 263.892 490.495 263.892C490.634 263.892 490.747 263.885 490.836 263.871C490.925 263.853 490.996 263.839 491.049 263.828L491.305 264.957C491.22 264.989 491.101 265.021 490.948 265.053C490.795 265.089 490.602 265.107 490.367 265.107C490.012 265.107 489.664 265.03 489.323 264.877C488.986 264.725 488.705 264.492 488.482 264.18C488.261 263.867 488.151 263.473 488.151 262.997V254.858ZM496.283 265.17C495.544 265.17 494.896 264.995 494.338 264.643C493.784 264.292 493.351 263.8 493.039 263.168C492.73 262.536 492.575 261.797 492.575 260.952C492.575 260.099 492.73 259.355 493.039 258.72C493.351 258.084 493.784 257.591 494.338 257.239C494.896 256.887 495.544 256.712 496.283 256.712C497.021 256.712 497.667 256.887 498.221 257.239C498.779 257.591 499.212 258.084 499.521 258.72C499.834 259.355 499.99 260.099 499.99 260.952C499.99 261.797 499.834 262.536 499.521 263.168C499.212 263.8 498.779 264.292 498.221 264.643C497.667 264.995 497.021 265.17 496.283 265.17ZM496.283 264.041C496.844 264.041 497.305 263.897 497.667 263.61C498.03 263.322 498.298 262.944 498.472 262.475C498.646 262.006 498.733 261.499 498.733 260.952C498.733 260.405 498.646 259.895 498.472 259.423C498.298 258.951 498.03 258.569 497.667 258.278C497.305 257.987 496.844 257.841 496.283 257.841C495.721 257.841 495.26 257.987 494.898 258.278C494.535 258.569 494.267 258.951 494.093 259.423C493.919 259.895 493.832 260.405 493.832 260.952C493.832 261.499 493.919 262.006 494.093 262.475C494.267 262.944 494.535 263.322 494.898 263.61C495.26 263.897 495.721 264.041 496.283 264.041ZM505.467 256.818V257.884H501.227V256.818H505.467ZM502.463 254.858H503.72V262.656C503.72 263.011 503.771 263.278 503.874 263.455C503.981 263.629 504.116 263.746 504.279 263.807C504.446 263.864 504.622 263.892 504.807 263.892C504.945 263.892 505.059 263.885 505.148 263.871C505.236 263.853 505.307 263.839 505.361 263.828L505.616 264.957C505.531 264.989 505.412 265.021 505.259 265.053C505.107 265.089 504.913 265.107 504.679 265.107C504.324 265.107 503.976 265.03 503.635 264.877C503.297 264.725 503.017 264.492 502.793 264.18C502.573 263.867 502.463 263.473 502.463 262.997V254.858ZM508.168 268.068C507.955 268.068 507.765 268.05 507.598 268.015C507.431 267.983 507.315 267.951 507.252 267.919L507.571 266.811C507.877 266.889 508.146 266.918 508.381 266.896C508.615 266.875 508.823 266.77 509.004 266.582C509.189 266.397 509.357 266.097 509.51 265.682L509.744 265.043L506.719 256.818H508.083L510.341 263.338H510.426L512.685 256.818H514.048L510.575 266.193C510.419 266.616 510.226 266.966 509.995 267.243C509.764 267.523 509.496 267.731 509.19 267.866C508.889 268.001 508.548 268.068 508.168 268.068ZM515.708 268.068V256.818H516.922V258.118H517.071C517.164 257.976 517.292 257.795 517.455 257.575C517.622 257.351 517.86 257.152 518.169 256.978C518.481 256.8 518.904 256.712 519.436 256.712C520.125 256.712 520.733 256.884 521.258 257.228C521.784 257.573 522.194 258.061 522.489 258.693C522.783 259.325 522.931 260.071 522.931 260.93C522.931 261.797 522.783 262.548 522.489 263.184C522.194 263.816 521.785 264.306 521.263 264.654C520.741 264.998 520.14 265.17 519.458 265.17C518.932 265.17 518.511 265.083 518.195 264.909C517.879 264.732 517.636 264.531 517.466 264.308C517.295 264.08 517.164 263.892 517.071 263.743H516.965V268.068H515.708ZM516.943 260.909C516.943 261.527 517.034 262.072 517.215 262.544C517.396 263.013 517.661 263.381 518.009 263.647C518.357 263.91 518.783 264.041 519.287 264.041C519.813 264.041 520.251 263.903 520.603 263.626C520.958 263.345 521.224 262.969 521.402 262.496C521.583 262.021 521.674 261.491 521.674 260.909C521.674 260.334 521.585 259.815 521.407 259.354C521.233 258.888 520.969 258.521 520.614 258.251C520.262 257.978 519.82 257.841 519.287 257.841C518.776 257.841 518.346 257.971 517.998 258.23C517.65 258.485 517.387 258.844 517.21 259.306C517.032 259.764 516.943 260.298 516.943 260.909ZM528.279 265.17C527.49 265.17 526.81 264.996 526.239 264.648C525.67 264.297 525.232 263.807 524.923 263.178C524.617 262.546 524.465 261.811 524.465 260.973C524.465 260.135 524.617 259.396 524.923 258.757C525.232 258.114 525.662 257.614 526.212 257.255C526.766 256.893 527.412 256.712 528.151 256.712C528.577 256.712 528.998 256.783 529.413 256.925C529.829 257.067 530.207 257.298 530.548 257.617C530.889 257.933 531.16 258.352 531.363 258.874C531.565 259.396 531.667 260.039 531.667 260.803V261.335H525.36V260.249H530.388C530.388 259.787 530.296 259.375 530.111 259.013C529.93 258.651 529.671 258.365 529.333 258.155C529 257.946 528.605 257.841 528.151 257.841C527.65 257.841 527.217 257.965 526.851 258.214C526.489 258.459 526.21 258.778 526.015 259.173C525.82 259.567 525.722 259.989 525.722 260.44V261.165C525.722 261.783 525.828 262.306 526.042 262.736C526.258 263.162 526.558 263.487 526.942 263.711C527.325 263.931 527.771 264.041 528.279 264.041C528.609 264.041 528.907 263.995 529.174 263.903C529.443 263.807 529.676 263.665 529.871 263.477C530.067 263.285 530.218 263.047 530.324 262.763L531.539 263.104C531.411 263.516 531.196 263.878 530.894 264.19C530.592 264.499 530.219 264.741 529.776 264.915C529.332 265.085 528.833 265.17 528.279 265.17ZM537.798 265V256.818H539.055V265H537.798ZM538.437 255.455C538.192 255.455 537.98 255.371 537.803 255.204C537.629 255.037 537.542 254.837 537.542 254.602C537.542 254.368 537.629 254.167 537.803 254C537.98 253.833 538.192 253.75 538.437 253.75C538.682 253.75 538.891 253.833 539.065 254C539.243 254.167 539.332 254.368 539.332 254.602C539.332 254.837 539.243 255.037 539.065 255.204C538.891 255.371 538.682 255.455 538.437 255.455ZM542.614 260.078V265H541.357V256.818H542.572V258.097H542.678C542.87 257.681 543.161 257.347 543.552 257.095C543.942 256.839 544.447 256.712 545.064 256.712C545.618 256.712 546.103 256.825 546.519 257.053C546.934 257.276 547.257 257.617 547.488 258.075C547.719 258.53 547.834 259.105 547.834 259.801V265H546.577V259.886C546.577 259.244 546.41 258.743 546.077 258.384C545.743 258.022 545.285 257.841 544.702 257.841C544.301 257.841 543.942 257.928 543.626 258.102C543.314 258.276 543.067 258.53 542.886 258.864C542.705 259.197 542.614 259.602 542.614 260.078ZM557.674 265.17C556.907 265.17 556.247 264.989 555.693 264.627C555.139 264.265 554.712 263.766 554.414 263.13C554.116 262.495 553.967 261.768 553.967 260.952C553.967 260.121 554.119 259.387 554.425 258.752C554.734 258.113 555.163 257.614 555.714 257.255C556.268 256.893 556.914 256.712 557.653 256.712C558.228 256.712 558.747 256.818 559.208 257.031C559.67 257.244 560.048 257.543 560.343 257.926C560.638 258.31 560.82 258.757 560.891 259.268H559.634C559.538 258.896 559.325 258.565 558.995 258.278C558.668 257.987 558.228 257.841 557.674 257.841C557.184 257.841 556.754 257.969 556.385 258.224C556.019 258.477 555.733 258.833 555.527 259.295C555.325 259.753 555.224 260.291 555.224 260.909C555.224 261.541 555.323 262.092 555.522 262.56C555.725 263.029 556.009 263.393 556.374 263.652C556.744 263.912 557.177 264.041 557.674 264.041C558.001 264.041 558.297 263.984 558.564 263.871C558.83 263.757 559.056 263.594 559.24 263.381C559.425 263.168 559.556 262.912 559.634 262.614H560.891C560.82 263.097 560.645 263.532 560.364 263.919C560.087 264.302 559.72 264.608 559.261 264.835C558.807 265.059 558.278 265.17 557.674 265.17ZM566.053 265.17C565.314 265.17 564.666 264.995 564.109 264.643C563.555 264.292 563.122 263.8 562.809 263.168C562.5 262.536 562.346 261.797 562.346 260.952C562.346 260.099 562.5 259.355 562.809 258.72C563.122 258.084 563.555 257.591 564.109 257.239C564.666 256.887 565.314 256.712 566.053 256.712C566.792 256.712 567.438 256.887 567.992 257.239C568.549 257.591 568.983 258.084 569.292 258.72C569.604 259.355 569.76 260.099 569.76 260.952C569.76 261.797 569.604 262.536 569.292 263.168C568.983 263.8 568.549 264.292 567.992 264.643C567.438 264.995 566.792 265.17 566.053 265.17ZM566.053 264.041C566.614 264.041 567.076 263.897 567.438 263.61C567.8 263.322 568.068 262.944 568.242 262.475C568.416 262.006 568.503 261.499 568.503 260.952C568.503 260.405 568.416 259.895 568.242 259.423C568.068 258.951 567.8 258.569 567.438 258.278C567.076 257.987 566.614 257.841 566.053 257.841C565.492 257.841 565.03 257.987 564.668 258.278C564.306 258.569 564.038 258.951 563.864 259.423C563.69 259.895 563.603 260.405 563.603 260.952C563.603 261.499 563.69 262.006 563.864 262.475C564.038 262.944 564.306 263.322 564.668 263.61C565.03 263.897 565.492 264.041 566.053 264.041ZM574.769 265.17C574.087 265.17 573.485 264.998 572.963 264.654C572.441 264.306 572.033 263.816 571.738 263.184C571.443 262.548 571.296 261.797 571.296 260.93C571.296 260.071 571.443 259.325 571.738 258.693C572.033 258.061 572.443 257.573 572.968 257.228C573.494 256.884 574.101 256.712 574.79 256.712C575.323 256.712 575.744 256.8 576.053 256.978C576.365 257.152 576.603 257.351 576.766 257.575C576.933 257.795 577.063 257.976 577.155 258.118H577.262V254.091H578.519V265H577.304V263.743H577.155C577.063 263.892 576.932 264.08 576.761 264.308C576.591 264.531 576.347 264.732 576.031 264.909C575.715 265.083 575.294 265.17 574.769 265.17ZM574.939 264.041C575.444 264.041 575.87 263.91 576.218 263.647C576.566 263.381 576.83 263.013 577.011 262.544C577.193 262.072 577.283 261.527 577.283 260.909C577.283 260.298 577.194 259.764 577.017 259.306C576.839 258.844 576.576 258.485 576.228 258.23C575.88 257.971 575.451 257.841 574.939 257.841C574.407 257.841 573.963 257.978 573.608 258.251C573.256 258.521 572.992 258.888 572.814 259.354C572.64 259.815 572.553 260.334 572.553 260.909C572.553 261.491 572.642 262.021 572.819 262.496C573 262.969 573.267 263.345 573.618 263.626C573.973 263.903 574.414 264.041 574.939 264.041ZM584.426 265.17C583.638 265.17 582.958 264.996 582.386 264.648C581.818 264.297 581.379 263.807 581.07 263.178C580.765 262.546 580.612 261.811 580.612 260.973C580.612 260.135 580.765 259.396 581.07 258.757C581.379 258.114 581.809 257.614 582.359 257.255C582.913 256.893 583.56 256.712 584.298 256.712C584.724 256.712 585.145 256.783 585.561 256.925C585.976 257.067 586.354 257.298 586.695 257.617C587.036 257.933 587.308 258.352 587.51 258.874C587.713 259.396 587.814 260.039 587.814 260.803V261.335H581.507V260.249H586.536C586.536 259.787 586.443 259.375 586.259 259.013C586.077 258.651 585.818 258.365 585.481 258.155C585.147 257.946 584.753 257.841 584.298 257.841C583.798 257.841 583.364 257.965 582.999 258.214C582.636 258.459 582.358 258.778 582.162 259.173C581.967 259.567 581.869 259.989 581.869 260.44V261.165C581.869 261.783 581.976 262.306 582.189 262.736C582.406 263.162 582.706 263.487 583.089 263.711C583.473 263.931 583.918 264.041 584.426 264.041C584.756 264.041 585.055 263.995 585.321 263.903C585.591 263.807 585.824 263.665 586.019 263.477C586.214 263.285 586.365 263.047 586.472 262.763L587.686 263.104C587.558 263.516 587.343 263.878 587.042 264.19C586.74 264.499 586.367 264.741 585.923 264.915C585.479 265.085 584.98 265.17 584.426 265.17Z" fill="#222222"/>
<path d="M224.071 361.05H239.071V346.05H224.071V361.05ZM244.014 350.263V349.091H252.196V350.263H248.766V360H247.445V350.263H244.014ZM256.309 360.17C255.52 360.17 254.84 359.996 254.268 359.648C253.7 359.297 253.262 358.807 252.953 358.178C252.647 357.546 252.495 356.811 252.495 355.973C252.495 355.135 252.647 354.396 252.953 353.757C253.262 353.114 253.691 352.614 254.242 352.255C254.796 351.893 255.442 351.712 256.181 351.712C256.607 351.712 257.028 351.783 257.443 351.925C257.859 352.067 258.237 352.298 258.578 352.617C258.919 352.933 259.19 353.352 259.393 353.874C259.595 354.396 259.696 355.039 259.696 355.803V356.335H253.389V355.249H258.418C258.418 354.787 258.326 354.375 258.141 354.013C257.96 353.651 257.701 353.365 257.363 353.155C257.029 352.946 256.635 352.841 256.181 352.841C255.68 352.841 255.247 352.965 254.881 353.214C254.519 353.459 254.24 353.778 254.045 354.173C253.849 354.567 253.752 354.989 253.752 355.44V356.165C253.752 356.783 253.858 357.306 254.071 357.736C254.288 358.162 254.588 358.487 254.972 358.711C255.355 358.931 255.801 359.041 256.309 359.041C256.639 359.041 256.937 358.995 257.203 358.903C257.473 358.807 257.706 358.665 257.901 358.477C258.097 358.285 258.247 358.047 258.354 357.763L259.568 358.104C259.441 358.516 259.226 358.878 258.924 359.19C258.622 359.499 258.249 359.741 257.805 359.915C257.361 360.085 256.862 360.17 256.309 360.17ZM267.404 353.651L266.275 353.97C266.204 353.782 266.099 353.599 265.96 353.422C265.826 353.24 265.641 353.091 265.407 352.974C265.172 352.857 264.872 352.798 264.506 352.798C264.006 352.798 263.588 352.914 263.255 353.145C262.924 353.372 262.759 353.661 262.759 354.013C262.759 354.325 262.873 354.572 263.1 354.753C263.327 354.934 263.682 355.085 264.165 355.206L265.38 355.504C266.111 355.682 266.657 355.953 267.015 356.319C267.374 356.681 267.553 357.148 267.553 357.72C267.553 358.189 267.418 358.608 267.148 358.977C266.882 359.347 266.509 359.638 266.03 359.851C265.55 360.064 264.993 360.17 264.357 360.17C263.523 360.17 262.832 359.989 262.285 359.627C261.738 359.265 261.392 358.736 261.246 358.04L262.44 357.741C262.553 358.182 262.768 358.512 263.084 358.732C263.404 358.952 263.821 359.062 264.336 359.062C264.922 359.062 265.387 358.938 265.731 358.69C266.079 358.437 266.253 358.136 266.253 357.784C266.253 357.5 266.154 357.262 265.955 357.07C265.756 356.875 265.451 356.729 265.039 356.634L263.675 356.314C262.926 356.136 262.376 355.861 262.024 355.488C261.676 355.112 261.502 354.641 261.502 354.077C261.502 353.615 261.632 353.207 261.891 352.852C262.154 352.496 262.511 352.218 262.962 352.015C263.416 351.813 263.931 351.712 264.506 351.712C265.316 351.712 265.952 351.889 266.413 352.244C266.878 352.599 267.209 353.068 267.404 353.651ZM273.004 351.818V352.884H268.764V351.818H273.004ZM269.999 349.858H271.257V357.656C271.257 358.011 271.308 358.278 271.411 358.455C271.518 358.629 271.653 358.746 271.816 358.807C271.983 358.864 272.159 358.892 272.343 358.892C272.482 358.892 272.595 358.885 272.684 358.871C272.773 358.853 272.844 358.839 272.897 358.828L273.153 359.957C273.068 359.989 272.949 360.021 272.796 360.053C272.643 360.089 272.45 360.107 272.215 360.107C271.86 360.107 271.512 360.03 271.171 359.877C270.834 359.725 270.553 359.492 270.33 359.18C270.11 358.867 269.999 358.473 269.999 357.997V349.858ZM282.203 360.149C281.486 360.149 280.868 360.018 280.349 359.755C279.831 359.492 279.431 359.132 279.151 358.674C278.87 358.216 278.73 357.692 278.73 357.102C278.73 356.648 278.826 356.245 279.018 355.893C279.213 355.538 279.481 355.21 279.822 354.908C280.166 354.602 280.562 354.297 281.01 353.991L282.586 352.82C282.895 352.617 283.142 352.401 283.327 352.17C283.515 351.939 283.609 351.637 283.609 351.264C283.609 350.987 283.487 350.719 283.242 350.46C283 350.201 282.682 350.071 282.288 350.071C282.011 350.071 281.766 350.142 281.553 350.284C281.344 350.423 281.178 350.6 281.058 350.817C280.941 351.03 280.882 351.25 280.882 351.477C280.882 351.733 280.951 351.992 281.09 352.255C281.232 352.514 281.411 352.781 281.628 353.054C281.848 353.324 282.075 353.601 282.309 353.885L287.317 360H285.804L281.67 355.014C281.287 354.553 280.939 354.134 280.626 353.757C280.314 353.381 280.065 353.01 279.881 352.644C279.696 352.278 279.604 351.882 279.604 351.456C279.604 350.966 279.712 350.536 279.928 350.167C280.149 349.794 280.456 349.505 280.85 349.299C281.248 349.089 281.713 348.984 282.246 348.984C282.792 348.984 283.263 349.091 283.657 349.304C284.051 349.513 284.355 349.792 284.568 350.14C284.781 350.485 284.888 350.859 284.888 351.264C284.888 351.786 284.758 352.239 284.499 352.623C284.24 353.006 283.886 353.363 283.439 353.693L281.265 355.312C280.775 355.675 280.443 356.026 280.269 356.367C280.095 356.708 280.008 356.953 280.008 357.102C280.008 357.443 280.097 357.761 280.275 358.056C280.452 358.35 280.703 358.588 281.026 358.77C281.349 358.951 281.727 359.041 282.16 359.041C282.572 359.041 282.974 358.954 283.364 358.78C283.755 358.603 284.108 358.347 284.424 358.013C284.744 357.679 284.996 357.278 285.181 356.809C285.369 356.341 285.463 355.813 285.463 355.227H286.677C286.677 355.952 286.594 356.543 286.427 357.001C286.26 357.459 286.072 357.818 285.862 358.077C285.653 358.336 285.484 358.53 285.356 358.658C285.314 358.711 285.275 358.764 285.239 358.817C285.204 358.871 285.165 358.924 285.122 358.977C284.77 359.371 284.327 359.666 283.79 359.862C283.254 360.053 282.725 360.149 282.203 360.149ZM296.57 351.818V352.884H292.16V351.818H296.57ZM293.481 360V350.689C293.481 350.22 293.591 349.83 293.811 349.517C294.031 349.205 294.317 348.97 294.669 348.814C295.02 348.658 295.391 348.58 295.782 348.58C296.091 348.58 296.343 348.604 296.538 348.654C296.734 348.704 296.879 348.75 296.975 348.793L296.613 349.879C296.549 349.858 296.46 349.831 296.347 349.799C296.237 349.767 296.091 349.751 295.91 349.751C295.494 349.751 295.194 349.856 295.01 350.066C294.829 350.275 294.738 350.582 294.738 350.987V360H293.481ZM301.426 360.17C300.637 360.17 299.957 359.996 299.386 359.648C298.817 359.297 298.379 358.807 298.07 358.178C297.764 357.546 297.612 356.811 297.612 355.973C297.612 355.135 297.764 354.396 298.07 353.757C298.379 353.114 298.809 352.614 299.359 352.255C299.913 351.893 300.559 351.712 301.298 351.712C301.724 351.712 302.145 351.783 302.56 351.925C302.976 352.067 303.354 352.298 303.695 352.617C304.036 352.933 304.307 353.352 304.51 353.874C304.712 354.396 304.813 355.039 304.813 355.803V356.335H298.507V355.249H303.535C303.535 354.787 303.443 354.375 303.258 354.013C303.077 353.651 302.818 353.365 302.48 353.155C302.147 352.946 301.752 352.841 301.298 352.841C300.797 352.841 300.364 352.965 299.998 353.214C299.636 353.459 299.357 353.778 299.162 354.173C298.967 354.567 298.869 354.989 298.869 355.44V356.165C298.869 356.783 298.975 357.306 299.188 357.736C299.405 358.162 299.705 358.487 300.089 358.711C300.472 358.931 300.918 359.041 301.426 359.041C301.756 359.041 302.054 358.995 302.321 358.903C302.59 358.807 302.823 358.665 303.018 358.477C303.214 358.285 303.365 358.047 303.471 357.763L304.686 358.104C304.558 358.516 304.343 358.878 304.041 359.19C303.739 359.499 303.366 359.741 302.922 359.915C302.479 360.085 301.98 360.17 301.426 360.17ZM310.156 360.17C309.368 360.17 308.688 359.996 308.116 359.648C307.548 359.297 307.109 358.807 306.8 358.178C306.495 357.546 306.342 356.811 306.342 355.973C306.342 355.135 306.495 354.396 306.8 353.757C307.109 353.114 307.539 352.614 308.089 352.255C308.643 351.893 309.29 351.712 310.028 351.712C310.454 351.712 310.875 351.783 311.291 351.925C311.706 352.067 312.084 352.298 312.425 352.617C312.766 352.933 313.038 353.352 313.24 353.874C313.443 354.396 313.544 355.039 313.544 355.803V356.335H307.237V355.249H312.266C312.266 354.787 312.173 354.375 311.989 354.013C311.807 353.651 311.548 353.365 311.211 353.155C310.877 352.946 310.483 352.841 310.028 352.841C309.528 352.841 309.094 352.965 308.729 353.214C308.366 353.459 308.088 353.778 307.892 354.173C307.697 354.567 307.599 354.989 307.599 355.44V356.165C307.599 356.783 307.706 357.306 307.919 357.736C308.136 358.162 308.436 358.487 308.819 358.711C309.203 358.931 309.648 359.041 310.156 359.041C310.486 359.041 310.785 358.995 311.051 358.903C311.321 358.807 311.554 358.665 311.749 358.477C311.944 358.285 312.095 358.047 312.202 357.763L313.416 358.104C313.288 358.516 313.073 358.878 312.772 359.19C312.47 359.499 312.097 359.741 311.653 359.915C311.209 360.085 310.71 360.17 310.156 360.17ZM318.546 360.17C317.864 360.17 317.262 359.998 316.74 359.654C316.218 359.306 315.81 358.816 315.515 358.184C315.22 357.548 315.073 356.797 315.073 355.93C315.073 355.071 315.22 354.325 315.515 353.693C315.81 353.061 316.22 352.573 316.745 352.228C317.271 351.884 317.878 351.712 318.567 351.712C319.1 351.712 319.521 351.8 319.829 351.978C320.142 352.152 320.38 352.351 320.543 352.575C320.71 352.795 320.84 352.976 320.932 353.118H321.039V349.091H322.296V360H321.081V358.743H320.932C320.84 358.892 320.708 359.08 320.538 359.308C320.367 359.531 320.124 359.732 319.808 359.909C319.492 360.083 319.071 360.17 318.546 360.17ZM318.716 359.041C319.22 359.041 319.647 358.91 319.995 358.647C320.343 358.381 320.607 358.013 320.788 357.544C320.969 357.072 321.06 356.527 321.06 355.909C321.06 355.298 320.971 354.764 320.794 354.306C320.616 353.844 320.353 353.485 320.005 353.23C319.657 352.971 319.228 352.841 318.716 352.841C318.184 352.841 317.74 352.978 317.384 353.251C317.033 353.521 316.768 353.888 316.591 354.354C316.417 354.815 316.33 355.334 316.33 355.909C316.33 356.491 316.419 357.021 316.596 357.496C316.777 357.969 317.044 358.345 317.395 358.626C317.75 358.903 318.191 359.041 318.716 359.041ZM324.943 360V349.091H326.2V353.118H326.307C326.399 352.976 326.527 352.795 326.69 352.575C326.857 352.351 327.095 352.152 327.404 351.978C327.717 351.8 328.139 351.712 328.672 351.712C329.361 351.712 329.968 351.884 330.494 352.228C331.019 352.573 331.429 353.061 331.724 353.693C332.019 354.325 332.166 355.071 332.166 355.93C332.166 356.797 332.019 357.548 331.724 358.184C331.429 358.816 331.021 359.306 330.499 359.654C329.977 359.998 329.375 360.17 328.693 360.17C328.168 360.17 327.747 360.083 327.431 359.909C327.115 359.732 326.871 359.531 326.701 359.308C326.53 359.08 326.399 358.892 326.307 358.743H326.158V360H324.943ZM326.179 355.909C326.179 356.527 326.269 357.072 326.451 357.544C326.632 358.013 326.896 358.381 327.244 358.647C327.592 358.91 328.018 359.041 328.523 359.041C329.048 359.041 329.487 358.903 329.838 358.626C330.193 358.345 330.46 357.969 330.637 357.496C330.818 357.021 330.909 356.491 330.909 355.909C330.909 355.334 330.82 354.815 330.643 354.354C330.469 353.888 330.204 353.521 329.849 353.251C329.497 352.978 329.055 352.841 328.523 352.841C328.011 352.841 327.582 352.971 327.234 353.23C326.886 353.485 326.623 353.844 326.445 354.306C326.268 354.764 326.179 355.298 326.179 355.909ZM336.497 360.192C335.978 360.192 335.508 360.094 335.085 359.899C334.663 359.7 334.327 359.414 334.078 359.041C333.83 358.665 333.706 358.21 333.706 357.678C333.706 357.209 333.798 356.829 333.983 356.538C334.167 356.243 334.414 356.012 334.723 355.845C335.032 355.678 335.373 355.554 335.746 355.472C336.122 355.387 336.5 355.32 336.88 355.27C337.377 355.206 337.78 355.158 338.089 355.126C338.402 355.091 338.629 355.032 338.771 354.95C338.917 354.869 338.99 354.727 338.99 354.524V354.482C338.99 353.956 338.846 353.548 338.558 353.256C338.274 352.965 337.843 352.82 337.264 352.82C336.664 352.82 336.193 352.951 335.852 353.214C335.511 353.477 335.272 353.757 335.133 354.055L333.94 353.629C334.153 353.132 334.437 352.745 334.792 352.468C335.151 352.187 335.541 351.992 335.964 351.882C336.39 351.768 336.809 351.712 337.221 351.712C337.484 351.712 337.786 351.744 338.127 351.808C338.471 351.868 338.803 351.994 339.123 352.186C339.446 352.377 339.714 352.667 339.927 353.054C340.14 353.441 340.247 353.96 340.247 354.609V360H338.99V358.892H338.926C338.84 359.07 338.698 359.26 338.5 359.462C338.301 359.664 338.036 359.837 337.706 359.979C337.376 360.121 336.973 360.192 336.497 360.192ZM336.688 359.062C337.186 359.062 337.605 358.965 337.946 358.77C338.29 358.574 338.549 358.322 338.723 358.013C338.901 357.704 338.99 357.379 338.99 357.038V355.888C338.936 355.952 338.819 356.01 338.638 356.064C338.46 356.113 338.255 356.158 338.02 356.197C337.789 356.232 337.564 356.264 337.344 356.293C337.127 356.317 336.951 356.339 336.816 356.357C336.49 356.399 336.184 356.468 335.9 356.564C335.62 356.657 335.392 356.797 335.218 356.985C335.048 357.17 334.963 357.422 334.963 357.741C334.963 358.178 335.124 358.509 335.447 358.732C335.774 358.952 336.188 359.062 336.688 359.062ZM345.865 360.17C345.098 360.17 344.438 359.989 343.884 359.627C343.33 359.265 342.903 358.766 342.605 358.13C342.307 357.495 342.158 356.768 342.158 355.952C342.158 355.121 342.31 354.387 342.616 353.752C342.925 353.113 343.354 352.614 343.905 352.255C344.459 351.893 345.105 351.712 345.844 351.712C346.419 351.712 346.938 351.818 347.399 352.031C347.861 352.244 348.239 352.543 348.534 352.926C348.828 353.31 349.011 353.757 349.082 354.268H347.825C347.729 353.896 347.516 353.565 347.186 353.278C346.859 352.987 346.419 352.841 345.865 352.841C345.375 352.841 344.945 352.969 344.576 353.224C344.21 353.477 343.924 353.833 343.718 354.295C343.516 354.753 343.415 355.291 343.415 355.909C343.415 356.541 343.514 357.092 343.713 357.56C343.915 358.029 344.2 358.393 344.565 358.652C344.935 358.912 345.368 359.041 345.865 359.041C346.192 359.041 346.488 358.984 346.755 358.871C347.021 358.757 347.246 358.594 347.431 358.381C347.616 358.168 347.747 357.912 347.825 357.614H349.082C349.011 358.097 348.836 358.532 348.555 358.919C348.278 359.302 347.911 359.608 347.452 359.835C346.998 360.059 346.469 360.17 345.865 360.17ZM352.092 357.017L352.071 355.462H352.326L355.906 351.818H357.461L353.647 355.675H353.541L352.092 357.017ZM350.92 360V349.091H352.177V360H350.92ZM356.119 360L352.923 355.952L353.818 355.078L357.717 360H356.119Z" fill="#222222"/>
<path d="M10.4634 266.05H25.4634V251.05H10.4634V266.05ZM31.0032 265V254.091H34.6892C35.5415 254.091 36.2411 254.237 36.788 254.528C37.3348 254.815 37.7397 255.211 38.0024 255.716C38.2652 256.22 38.3966 256.793 38.3966 257.436C38.3966 258.079 38.2652 258.649 38.0024 259.146C37.7397 259.643 37.3366 260.034 36.7933 260.318C36.25 260.598 35.5557 260.739 34.7105 260.739H31.7276V259.545H34.6679C35.2503 259.545 35.7191 259.46 36.0742 259.29C36.4328 259.119 36.6921 258.878 36.8519 258.565C37.0152 258.249 37.0969 257.873 37.0969 257.436C37.0969 256.999 37.0152 256.618 36.8519 256.291C36.6885 255.964 36.4275 255.712 36.0688 255.534C35.7102 255.353 35.2361 255.263 34.6466 255.263H32.3242V265H31.0032ZM36.1381 260.099L38.8228 265H37.2887L34.6466 260.099H36.1381ZM43.7699 265.17C42.9816 265.17 42.3015 264.996 41.7298 264.648C41.1616 264.297 40.7231 263.807 40.4141 263.178C40.1087 262.546 39.956 261.811 39.956 260.973C39.956 260.135 40.1087 259.396 40.4141 258.757C40.7231 258.114 41.1527 257.614 41.7032 257.255C42.2571 256.893 42.9035 256.712 43.6421 256.712C44.0682 256.712 44.489 256.783 44.9045 256.925C45.32 257.067 45.6982 257.298 46.0391 257.617C46.38 257.933 46.6517 258.352 46.8541 258.874C47.0565 259.396 47.1577 260.039 47.1577 260.803V261.335H40.8509V260.249H45.8793C45.8793 259.787 45.787 259.375 45.6023 259.013C45.4212 258.651 45.162 258.365 44.8246 258.155C44.4908 257.946 44.0966 257.841 43.6421 257.841C43.1414 257.841 42.7081 257.965 42.3424 258.214C41.9802 258.459 41.7014 258.778 41.5061 259.173C41.3108 259.567 41.2131 259.989 41.2131 260.44V261.165C41.2131 261.783 41.3196 262.306 41.5327 262.736C41.7493 263.162 42.0494 263.487 42.4329 263.711C42.8165 263.931 43.2621 264.041 43.7699 264.041C44.1002 264.041 44.3985 263.995 44.6648 263.903C44.9347 263.807 45.1673 263.665 45.3626 263.477C45.5579 263.285 45.7089 263.047 45.8154 262.763L47.0299 263.104C46.902 263.516 46.6872 263.878 46.3853 264.19C46.0835 264.499 45.7106 264.741 45.2667 264.915C44.8228 265.085 44.3239 265.17 43.7699 265.17ZM52.7135 256.818V257.884H48.303V256.818H52.7135ZM49.624 265V255.689C49.624 255.22 49.7341 254.83 49.9542 254.517C50.1744 254.205 50.4603 253.97 50.8118 253.814C51.1634 253.658 51.5345 253.58 51.9251 253.58C52.2341 253.58 52.4862 253.604 52.6815 253.654C52.8768 253.704 53.0224 253.75 53.1183 253.793L52.7561 254.879C52.6922 254.858 52.6034 254.831 52.4897 254.799C52.3797 254.767 52.2341 254.751 52.053 254.751C51.6375 254.751 51.3374 254.856 51.1527 255.066C50.9716 255.275 50.8811 255.582 50.8811 255.987V265H49.624ZM54.4753 265V256.818H55.7324V265H54.4753ZM55.1145 255.455C54.8695 255.455 54.6582 255.371 54.4806 255.204C54.3066 255.037 54.2196 254.837 54.2196 254.602C54.2196 254.368 54.3066 254.167 54.4806 254C54.6582 253.833 54.8695 253.75 55.1145 253.75C55.3595 253.75 55.569 253.833 55.743 254C55.9206 254.167 56.0094 254.368 56.0094 254.602C56.0094 254.837 55.9206 255.037 55.743 255.204C55.569 255.371 55.3595 255.455 55.1145 255.455ZM59.2919 260.078V265H58.0348V256.818H59.2493V258.097H59.3559C59.5476 257.681 59.8388 257.347 60.2294 257.095C60.6201 256.839 61.1243 256.712 61.7422 256.712C62.2962 256.712 62.7809 256.825 63.1964 257.053C63.6119 257.276 63.9351 257.617 64.1659 258.075C64.3967 258.53 64.5121 259.105 64.5121 259.801V265H63.255V259.886C63.255 259.244 63.0881 258.743 62.7543 258.384C62.4205 258.022 61.9624 257.841 61.38 257.841C60.9787 257.841 60.6201 257.928 60.304 258.102C59.9915 258.276 59.7447 258.53 59.5636 258.864C59.3825 259.197 59.2919 259.602 59.2919 260.078ZM70.2397 265.17C69.4513 265.17 68.7713 264.996 68.1995 264.648C67.6313 264.297 67.1928 263.807 66.8838 263.178C66.5784 262.546 66.4257 261.811 66.4257 260.973C66.4257 260.135 66.5784 259.396 66.8838 258.757C67.1928 258.114 67.6225 257.614 68.1729 257.255C68.7269 256.893 69.3732 256.712 70.1118 256.712C70.538 256.712 70.9588 256.783 71.3742 256.925C71.7897 257.067 72.1679 257.298 72.5088 257.617C72.8497 257.933 73.1214 258.352 73.3238 258.874C73.5262 259.396 73.6274 260.039 73.6274 260.803V261.335H67.3206V260.249H72.349C72.349 259.787 72.2567 259.375 72.072 259.013C71.8909 258.651 71.6317 258.365 71.2943 258.155C70.9605 257.946 70.5664 257.841 70.1118 257.841C69.6111 257.841 69.1779 257.965 68.8121 258.214C68.4499 258.459 68.1711 258.778 67.9758 259.173C67.7805 259.567 67.6828 259.989 67.6828 260.44V261.165C67.6828 261.783 67.7894 262.306 68.0024 262.736C68.2191 263.162 68.5191 263.487 68.9027 263.711C69.2862 263.931 69.7318 264.041 70.2397 264.041C70.5699 264.041 70.8682 263.995 71.1345 263.903C71.4044 263.807 71.637 263.665 71.8323 263.477C72.0277 263.285 72.1786 263.047 72.2851 262.763L73.4996 263.104C73.3718 263.516 73.1569 263.878 72.8551 264.19C72.5532 264.499 72.1804 264.741 71.7365 264.915C71.2926 265.085 70.7936 265.17 70.2397 265.17ZM79.7585 265V256.818H81.0156V265H79.7585ZM80.3977 255.455C80.1527 255.455 79.9414 255.371 79.7638 255.204C79.5898 255.037 79.5028 254.837 79.5028 254.602C79.5028 254.368 79.5898 254.167 79.7638 254C79.9414 253.833 80.1527 253.75 80.3977 253.75C80.6427 253.75 80.8522 253.833 81.0262 254C81.2038 254.167 81.2926 254.368 81.2926 254.602C81.2926 254.837 81.2038 255.037 81.0262 255.204C80.8522 255.371 80.6427 255.455 80.3977 255.455ZM84.5752 260.078V265H83.318V256.818H84.5325V258.097H84.6391C84.8308 257.681 85.122 257.347 85.5127 257.095C85.9033 256.839 86.4075 256.712 87.0254 256.712C87.5794 256.712 88.0641 256.825 88.4796 257.053C88.8951 257.276 89.2183 257.617 89.4491 258.075C89.6799 258.53 89.7953 259.105 89.7953 259.801V265H88.5382V259.886C88.5382 259.244 88.3713 258.743 88.0375 258.384C87.7037 258.022 87.2456 257.841 86.6632 257.841C86.2619 257.841 85.9033 257.928 85.5872 258.102C85.2747 258.276 85.0279 258.53 84.8468 258.864C84.6657 259.197 84.5752 259.602 84.5752 260.078ZM99.6351 265.17C98.868 265.17 98.2075 264.989 97.6535 264.627C97.0996 264.265 96.6734 263.766 96.3751 263.13C96.0768 262.495 95.9277 261.768 95.9277 260.952C95.9277 260.121 96.0804 259.387 96.3858 258.752C96.6947 258.113 97.1244 257.614 97.6748 257.255C98.2288 256.893 98.8751 256.712 99.6138 256.712C100.189 256.712 100.708 256.818 101.169 257.031C101.631 257.244 102.009 257.543 102.304 257.926C102.598 258.31 102.781 258.757 102.852 259.268H101.595C101.499 258.896 101.286 258.565 100.956 258.278C100.629 257.987 100.189 257.841 99.6351 257.841C99.145 257.841 98.7153 257.969 98.346 258.224C97.9802 258.477 97.6944 258.833 97.4884 259.295C97.286 259.753 97.1848 260.291 97.1848 260.909C97.1848 261.541 97.2842 262.092 97.4831 262.56C97.6855 263.029 97.9696 263.393 98.3354 263.652C98.7047 263.912 99.1379 264.041 99.6351 264.041C99.9618 264.041 100.258 263.984 100.525 263.871C100.791 263.757 101.016 263.594 101.201 263.381C101.386 263.168 101.517 262.912 101.595 262.614H102.852C102.781 263.097 102.606 263.532 102.325 263.919C102.048 264.302 101.681 264.608 101.222 264.835C100.768 265.059 100.239 265.17 99.6351 265.17ZM108.014 265.17C107.275 265.17 106.627 264.995 106.07 264.643C105.516 264.292 105.083 263.8 104.77 263.168C104.461 262.536 104.307 261.797 104.307 260.952C104.307 260.099 104.461 259.355 104.77 258.72C105.083 258.084 105.516 257.591 106.07 257.239C106.627 256.887 107.275 256.712 108.014 256.712C108.753 256.712 109.399 256.887 109.953 257.239C110.51 257.591 110.944 258.084 111.253 258.72C111.565 259.355 111.721 260.099 111.721 260.952C111.721 261.797 111.565 262.536 111.253 263.168C110.944 263.8 110.51 264.292 109.953 264.643C109.399 264.995 108.753 265.17 108.014 265.17ZM108.014 264.041C108.575 264.041 109.037 263.897 109.399 263.61C109.761 263.322 110.029 262.944 110.203 262.475C110.377 262.006 110.464 261.499 110.464 260.952C110.464 260.405 110.377 259.895 110.203 259.423C110.029 258.951 109.761 258.569 109.399 258.278C109.037 257.987 108.575 257.841 108.014 257.841C107.453 257.841 106.991 257.987 106.629 258.278C106.267 258.569 105.999 258.951 105.825 259.423C105.651 259.895 105.564 260.405 105.564 260.952C105.564 261.499 105.651 262.006 105.825 262.475C105.999 262.944 106.267 263.322 106.629 263.61C106.991 263.897 107.453 264.041 108.014 264.041ZM116.73 265.17C116.048 265.17 115.446 264.998 114.924 264.654C114.402 264.306 113.994 263.816 113.699 263.184C113.404 262.548 113.257 261.797 113.257 260.93C113.257 260.071 113.404 259.325 113.699 258.693C113.994 258.061 114.404 257.573 114.929 257.228C115.455 256.884 116.062 256.712 116.751 256.712C117.284 256.712 117.705 256.8 118.014 256.978C118.326 257.152 118.564 257.351 118.727 257.575C118.894 257.795 119.024 257.976 119.116 258.118H119.223V254.091H120.48V265H119.265V263.743H119.116C119.024 263.892 118.892 264.08 118.722 264.308C118.552 264.531 118.308 264.732 117.992 264.909C117.676 265.083 117.255 265.17 116.73 265.17ZM116.9 264.041C117.405 264.041 117.831 263.91 118.179 263.647C118.527 263.381 118.791 263.013 118.972 262.544C119.153 262.072 119.244 261.527 119.244 260.909C119.244 260.298 119.155 259.764 118.978 259.306C118.8 258.844 118.537 258.485 118.189 258.23C117.841 257.971 117.412 257.841 116.9 257.841C116.368 257.841 115.924 257.978 115.569 258.251C115.217 258.521 114.952 258.888 114.775 259.354C114.601 259.815 114.514 260.334 114.514 260.909C114.514 261.491 114.603 262.021 114.78 262.496C114.961 262.969 115.228 263.345 115.579 263.626C115.934 263.903 116.375 264.041 116.9 264.041ZM126.387 265.17C125.599 265.17 124.919 264.996 124.347 264.648C123.779 264.297 123.34 263.807 123.031 263.178C122.726 262.546 122.573 261.811 122.573 260.973C122.573 260.135 122.726 259.396 123.031 258.757C123.34 258.114 123.77 257.614 124.32 257.255C124.874 256.893 125.521 256.712 126.259 256.712C126.685 256.712 127.106 256.783 127.522 256.925C127.937 257.067 128.315 257.298 128.656 257.617C128.997 257.933 129.269 258.352 129.471 258.874C129.674 259.396 129.775 260.039 129.775 260.803V261.335H123.468V260.249H128.496C128.496 259.787 128.404 259.375 128.22 259.013C128.038 258.651 127.779 258.365 127.442 258.155C127.108 257.946 126.714 257.841 126.259 257.841C125.759 257.841 125.325 257.965 124.96 258.214C124.597 258.459 124.319 258.778 124.123 259.173C123.928 259.567 123.83 259.989 123.83 260.44V261.165C123.83 261.783 123.937 262.306 124.15 262.736C124.367 263.162 124.667 263.487 125.05 263.711C125.434 263.931 125.879 264.041 126.387 264.041C126.717 264.041 127.016 263.995 127.282 263.903C127.552 263.807 127.784 263.665 127.98 263.477C128.175 263.285 128.326 263.047 128.433 262.763L129.647 263.104C129.519 263.516 129.304 263.878 129.003 264.19C128.701 264.499 128.328 264.741 127.884 264.915C127.44 265.085 126.941 265.17 126.387 265.17Z" fill="#222222"/>
<path d="M16.2173 128.05H31.2173V113.05H16.2173V128.05ZM42.723 118.818C42.659 118.278 42.3998 117.859 41.9453 117.561C41.4907 117.263 40.9332 117.114 40.2727 117.114C39.7897 117.114 39.3671 117.192 39.0049 117.348C38.6463 117.504 38.3657 117.719 38.1633 117.993C37.9644 118.266 37.865 118.577 37.865 118.925C37.865 119.216 37.9343 119.466 38.0728 119.676C38.2148 119.882 38.3959 120.054 38.6161 120.192C38.8362 120.327 39.0671 120.439 39.3085 120.528C39.55 120.613 39.772 120.683 39.9744 120.736L41.0823 121.034C41.3664 121.109 41.6825 121.212 42.0305 121.343C42.3821 121.474 42.7176 121.654 43.0372 121.881C43.3604 122.105 43.6267 122.392 43.8362 122.744C44.0458 123.096 44.1505 123.527 44.1505 124.038C44.1505 124.628 43.996 125.161 43.6871 125.636C43.3817 126.112 42.9343 126.49 42.3448 126.771C41.7588 127.051 41.0468 127.192 40.2088 127.192C39.4275 127.192 38.751 127.066 38.1793 126.814C37.6111 126.561 37.1637 126.21 36.837 125.759C36.5138 125.308 36.3309 124.784 36.2883 124.188H37.6519C37.6875 124.599 37.8259 124.94 38.0674 125.21C38.3125 125.477 38.6214 125.675 38.9943 125.807C39.3707 125.935 39.7755 125.999 40.2088 125.999C40.713 125.999 41.1658 125.917 41.5671 125.754C41.9684 125.587 42.2862 125.356 42.5206 125.061C42.7549 124.763 42.8721 124.415 42.8721 124.017C42.8721 123.655 42.7709 123.36 42.5685 123.133C42.3661 122.906 42.0997 122.721 41.7695 122.579C41.4392 122.437 41.0823 122.312 40.6988 122.206L39.3565 121.822C38.5042 121.577 37.8295 121.228 37.3323 120.773C36.8352 120.319 36.5866 119.724 36.5866 118.989C36.5866 118.378 36.7517 117.845 37.082 117.391C37.4158 116.933 37.8632 116.577 38.4243 116.325C38.9889 116.07 39.6193 115.942 40.3153 115.942C41.0184 115.942 41.6434 116.068 42.1903 116.32C42.7372 116.569 43.1704 116.909 43.49 117.343C43.8132 117.776 43.9836 118.268 44.0014 118.818H42.723ZM47.4091 122.078V127H46.152V116.091H47.4091V120.097H47.5157C47.7074 119.674 47.9951 119.338 48.3786 119.09C48.7657 118.838 49.2806 118.712 49.9233 118.712C50.4809 118.712 50.9691 118.824 51.3882 119.047C51.8072 119.267 52.1321 119.607 52.363 120.065C52.5973 120.519 52.7145 121.098 52.7145 121.801V127H51.4574V121.886C51.4574 121.237 51.2888 120.734 50.9514 120.379C50.6176 120.02 50.1542 119.841 49.5611 119.841C49.1492 119.841 48.7799 119.928 48.4532 120.102C48.13 120.276 47.8743 120.53 47.6861 120.864C47.5015 121.197 47.4091 121.602 47.4091 122.078ZM55.0143 127V118.818H56.2714V127H55.0143ZM55.6535 117.455C55.4085 117.455 55.1972 117.371 55.0197 117.204C54.8457 117.037 54.7587 116.837 54.7587 116.602C54.7587 116.368 54.8457 116.167 55.0197 116C55.1972 115.833 55.4085 115.75 55.6535 115.75C55.8986 115.75 56.1081 115.833 56.2821 116C56.4597 116.167 56.5484 116.368 56.5484 116.602C56.5484 116.837 56.4597 117.037 56.2821 117.204C56.1081 117.371 55.8986 117.455 55.6535 117.455ZM58.5739 130.068V118.818H59.7884V120.118H59.9375C60.0299 119.976 60.1577 119.795 60.3211 119.575C60.488 119.351 60.7259 119.152 61.0348 118.978C61.3473 118.8 61.7699 118.712 62.3026 118.712C62.9915 118.712 63.5988 118.884 64.1243 119.228C64.6499 119.573 65.0601 120.061 65.3548 120.693C65.6495 121.325 65.7969 122.071 65.7969 122.93C65.7969 123.797 65.6495 124.548 65.3548 125.184C65.0601 125.816 64.6517 126.306 64.1297 126.654C63.6076 126.998 63.0057 127.17 62.3239 127.17C61.7983 127.17 61.3775 127.083 61.0615 126.909C60.7454 126.732 60.5022 126.531 60.3317 126.308C60.1613 126.08 60.0299 125.892 59.9375 125.743H59.831V130.068H58.5739ZM59.8097 122.909C59.8097 123.527 59.9003 124.072 60.0814 124.544C60.2625 125.013 60.527 125.381 60.875 125.647C61.2231 125.91 61.6492 126.041 62.1535 126.041C62.679 126.041 63.1176 125.903 63.4691 125.626C63.8243 125.345 64.0906 124.969 64.2682 124.496C64.4493 124.021 64.5398 123.491 64.5398 122.909C64.5398 122.334 64.451 121.815 64.2735 121.354C64.0995 120.888 63.8349 120.521 63.4798 120.251C63.1282 119.978 62.6861 119.841 62.1535 119.841C61.6421 119.841 61.2124 119.971 60.8644 120.23C60.5164 120.485 60.2536 120.844 60.076 121.306C59.8985 121.764 59.8097 122.298 59.8097 122.909ZM75.0228 127.149C74.3054 127.149 73.6875 127.018 73.1691 126.755C72.6506 126.492 72.2511 126.132 71.9706 125.674C71.69 125.216 71.5498 124.692 71.5498 124.102C71.5498 123.648 71.6456 123.245 71.8374 122.893C72.0327 122.538 72.3008 122.21 72.6417 121.908C72.9862 121.602 73.3821 121.297 73.8296 120.991L75.4063 119.82C75.7152 119.617 75.962 119.401 76.1467 119.17C76.3349 118.939 76.429 118.637 76.429 118.264C76.429 117.987 76.3065 117.719 76.0615 117.46C75.82 117.201 75.5022 117.071 75.108 117.071C74.831 117.071 74.586 117.142 74.3729 117.284C74.1634 117.423 73.9983 117.6 73.8775 117.817C73.7603 118.03 73.7017 118.25 73.7017 118.477C73.7017 118.733 73.771 118.992 73.9095 119.255C74.0515 119.514 74.2309 119.781 74.4475 120.054C74.6677 120.324 74.8949 120.601 75.1293 120.885L80.1364 127H78.6236L74.4901 122.014C74.1066 121.553 73.7586 121.134 73.4461 120.757C73.1336 120.381 72.885 120.01 72.7003 119.644C72.5157 119.278 72.4233 118.882 72.4233 118.456C72.4233 117.966 72.5316 117.536 72.7483 117.167C72.9684 116.794 73.2756 116.505 73.6698 116.299C74.0675 116.089 74.5327 115.984 75.0654 115.984C75.6123 115.984 76.0828 116.091 76.477 116.304C76.8711 116.513 77.1748 116.792 77.3878 117.14C77.6009 117.485 77.7074 117.859 77.7074 118.264C77.7074 118.786 77.5778 119.239 77.3186 119.623C77.0593 120.006 76.706 120.363 76.2586 120.693L74.0853 122.312C73.5952 122.675 73.2632 123.026 73.0892 123.367C72.9152 123.708 72.8282 123.953 72.8282 124.102C72.8282 124.443 72.9169 124.761 73.0945 125.056C73.2721 125.35 73.5224 125.588 73.8456 125.77C74.1687 125.951 74.5469 126.041 74.9802 126.041C75.3921 126.041 75.7934 125.954 76.184 125.78C76.5746 125.603 76.928 125.347 77.244 125.013C77.5636 124.679 77.8157 124.278 78.0004 123.809C78.1886 123.341 78.2827 122.813 78.2827 122.227H79.4972C79.4972 122.952 79.4138 123.543 79.2468 124.001C79.0799 124.459 78.8917 124.818 78.6822 125.077C78.4727 125.336 78.304 125.53 78.1762 125.658C78.1336 125.711 78.0945 125.764 78.059 125.817C78.0235 125.871 77.9844 125.924 77.9418 125.977C77.5902 126.371 77.1464 126.666 76.6101 126.862C76.0739 127.053 75.5448 127.149 75.0228 127.149ZM87.2382 116.091V127H85.9172V116.091H87.2382ZM93.2747 118.818V119.884H89.0347V118.818H93.2747ZM90.2705 116.858H91.5276V124.656C91.5276 125.011 91.5791 125.278 91.682 125.455C91.7886 125.629 91.9235 125.746 92.0869 125.807C92.2538 125.864 92.4296 125.892 92.6142 125.892C92.7527 125.892 92.8663 125.885 92.9551 125.871C93.0439 125.853 93.1149 125.839 93.1682 125.828L93.4239 126.957C93.3386 126.989 93.2197 127.021 93.067 127.053C92.9143 127.089 92.7207 127.107 92.4864 127.107C92.1313 127.107 91.7832 127.03 91.4423 126.877C91.105 126.725 90.8244 126.492 90.6007 126.18C90.3805 125.867 90.2705 125.473 90.2705 124.997V116.858ZM98.5082 127.17C97.7199 127.17 97.0398 126.996 96.4681 126.648C95.8999 126.297 95.4613 125.807 95.1524 125.178C94.847 124.546 94.6943 123.811 94.6943 122.973C94.6943 122.135 94.847 121.396 95.1524 120.757C95.4613 120.114 95.891 119.614 96.4415 119.255C96.9954 118.893 97.6417 118.712 98.3804 118.712C98.8065 118.712 99.2273 118.783 99.6428 118.925C100.058 119.067 100.436 119.298 100.777 119.617C101.118 119.933 101.39 120.352 101.592 120.874C101.795 121.396 101.896 122.039 101.896 122.803V123.335H95.5892V122.249H100.618C100.618 121.787 100.525 121.375 100.341 121.013C100.159 120.651 99.9003 120.365 99.5629 120.155C99.2291 119.946 98.8349 119.841 98.3804 119.841C97.8797 119.841 97.4464 119.965 97.0807 120.214C96.7184 120.459 96.4397 120.778 96.2444 121.173C96.0491 121.567 95.9514 121.989 95.9514 122.44V123.165C95.9514 123.783 96.0579 124.306 96.271 124.736C96.4876 125.162 96.7877 125.487 97.1712 125.711C97.5547 125.931 98.0004 126.041 98.5082 126.041C98.8385 126.041 99.1368 125.995 99.4031 125.903C99.673 125.807 99.9056 125.665 100.101 125.477C100.296 125.285 100.447 125.047 100.554 124.763L101.768 125.104C101.64 125.516 101.425 125.878 101.124 126.19C100.822 126.499 100.449 126.741 100.005 126.915C99.5611 127.085 99.0622 127.17 98.5082 127.17ZM103.808 127V118.818H105.023V120.054H105.108C105.257 119.649 105.527 119.321 105.918 119.069C106.308 118.816 106.749 118.69 107.239 118.69C107.331 118.69 107.446 118.692 107.585 118.696C107.723 118.699 107.828 118.705 107.899 118.712V119.99C107.857 119.979 107.759 119.963 107.606 119.942C107.457 119.917 107.299 119.905 107.132 119.905C106.734 119.905 106.379 119.988 106.067 120.155C105.758 120.319 105.513 120.546 105.332 120.837C105.154 121.125 105.065 121.453 105.065 121.822V127H103.808ZM111.797 127.192C111.279 127.192 110.808 127.094 110.385 126.899C109.963 126.7 109.627 126.414 109.379 126.041C109.13 125.665 109.006 125.21 109.006 124.678C109.006 124.209 109.098 123.829 109.283 123.538C109.467 123.243 109.714 123.012 110.023 122.845C110.332 122.678 110.673 122.554 111.046 122.472C111.422 122.387 111.801 122.32 112.181 122.27C112.678 122.206 113.081 122.158 113.39 122.126C113.702 122.091 113.929 122.032 114.072 121.95C114.217 121.869 114.29 121.727 114.29 121.524V121.482C114.29 120.956 114.146 120.548 113.858 120.256C113.574 119.965 113.143 119.82 112.564 119.82C111.964 119.82 111.493 119.951 111.152 120.214C110.812 120.477 110.572 120.757 110.433 121.055L109.24 120.629C109.453 120.132 109.737 119.745 110.092 119.468C110.451 119.187 110.842 118.992 111.264 118.882C111.69 118.768 112.11 118.712 112.521 118.712C112.784 118.712 113.086 118.744 113.427 118.808C113.771 118.868 114.103 118.994 114.423 119.186C114.746 119.377 115.014 119.667 115.227 120.054C115.44 120.441 115.547 120.96 115.547 121.609V127H114.29V125.892H114.226C114.141 126.07 113.999 126.26 113.8 126.462C113.601 126.664 113.336 126.837 113.006 126.979C112.676 127.121 112.273 127.192 111.797 127.192ZM111.989 126.062C112.486 126.062 112.905 125.965 113.246 125.77C113.59 125.574 113.85 125.322 114.024 125.013C114.201 124.704 114.29 124.379 114.29 124.038V122.888C114.237 122.952 114.119 123.01 113.938 123.064C113.761 123.113 113.555 123.158 113.32 123.197C113.09 123.232 112.864 123.264 112.644 123.293C112.427 123.317 112.252 123.339 112.117 123.357C111.79 123.399 111.485 123.468 111.2 123.564C110.92 123.657 110.693 123.797 110.519 123.985C110.348 124.17 110.263 124.422 110.263 124.741C110.263 125.178 110.424 125.509 110.748 125.732C111.074 125.952 111.488 126.062 111.989 126.062ZM121.4 118.818V119.884H117.16V118.818H121.4ZM118.395 116.858H119.653V124.656C119.653 125.011 119.704 125.278 119.807 125.455C119.914 125.629 120.049 125.746 120.212 125.807C120.379 125.864 120.555 125.892 120.739 125.892C120.878 125.892 120.991 125.885 121.08 125.871C121.169 125.853 121.24 125.839 121.293 125.828L121.549 126.957C121.464 126.989 121.345 127.021 121.192 127.053C121.039 127.089 120.846 127.107 120.611 127.107C120.256 127.107 119.908 127.03 119.567 126.877C119.23 126.725 118.949 126.492 118.726 126.18C118.506 125.867 118.395 125.473 118.395 124.997V116.858ZM126.633 127.17C125.845 127.17 125.165 126.996 124.593 126.648C124.025 126.297 123.586 125.807 123.277 125.178C122.972 124.546 122.819 123.811 122.819 122.973C122.819 122.135 122.972 121.396 123.277 120.757C123.586 120.114 124.016 119.614 124.566 119.255C125.12 118.893 125.767 118.712 126.505 118.712C126.932 118.712 127.352 118.783 127.768 118.925C128.183 119.067 128.561 119.298 128.902 119.617C129.243 119.933 129.515 120.352 129.717 120.874C129.92 121.396 130.021 122.039 130.021 122.803V123.335H123.714V122.249H128.743C128.743 121.787 128.65 121.375 128.466 121.013C128.284 120.651 128.025 120.365 127.688 120.155C127.354 119.946 126.96 119.841 126.505 119.841C126.005 119.841 125.571 119.965 125.206 120.214C124.843 120.459 124.565 120.778 124.369 121.173C124.174 121.567 124.076 121.989 124.076 122.44V123.165C124.076 123.783 124.183 124.306 124.396 124.736C124.613 125.162 124.913 125.487 125.296 125.711C125.68 125.931 126.125 126.041 126.633 126.041C126.963 126.041 127.262 125.995 127.528 125.903C127.798 125.807 128.031 125.665 128.226 125.477C128.421 125.285 128.572 125.047 128.679 124.763L129.893 125.104C129.765 125.516 129.55 125.878 129.249 126.19C128.947 126.499 128.574 126.741 128.13 126.915C127.686 127.085 127.187 127.17 126.633 127.17Z" fill="#222222"/>
<circle cx="288.712" cy="186.474" r="122.989" stroke="#E56D23" stroke-width="3.95463"/>
<path d="M236.558 180.4H235.156C235.102 180.1 235.002 179.836 234.855 179.609C234.709 179.381 234.529 179.188 234.316 179.029C234.103 178.87 233.865 178.75 233.602 178.669C233.341 178.589 233.064 178.548 232.77 178.548C232.24 178.548 231.765 178.681 231.346 178.948C230.929 179.215 230.6 179.606 230.357 180.121C230.117 180.636 229.997 181.265 229.997 182.008C229.997 182.757 230.117 183.39 230.357 183.905C230.6 184.42 230.931 184.81 231.35 185.073C231.77 185.337 232.241 185.469 232.766 185.469C233.056 185.469 233.332 185.43 233.593 185.352C233.856 185.271 234.094 185.153 234.307 184.997C234.52 184.841 234.7 184.651 234.846 184.426C234.996 184.198 235.099 183.938 235.156 183.644L236.558 183.649C236.484 184.101 236.338 184.517 236.123 184.898C235.91 185.275 235.636 185.602 235.3 185.878C234.968 186.15 234.587 186.361 234.159 186.511C233.73 186.661 233.263 186.736 232.757 186.736C231.96 186.736 231.25 186.547 230.627 186.17C230.003 185.789 229.512 185.245 229.153 184.538C228.796 183.831 228.618 182.988 228.618 182.008C228.618 181.026 228.798 180.182 229.157 179.478C229.517 178.771 230.008 178.229 230.631 177.852C231.254 177.471 231.963 177.281 232.757 177.281C233.245 177.281 233.7 177.351 234.123 177.492C234.548 177.63 234.93 177.834 235.269 178.103C235.607 178.37 235.887 178.696 236.109 179.083C236.331 179.466 236.481 179.905 236.558 180.4ZM241.02 186.749C240.373 186.749 239.808 186.601 239.326 186.305C238.843 186.008 238.469 185.593 238.202 185.06C237.936 184.526 237.802 183.903 237.802 183.19C237.802 182.474 237.936 181.848 238.202 181.312C238.469 180.776 238.843 180.359 239.326 180.063C239.808 179.766 240.373 179.618 241.02 179.618C241.667 179.618 242.232 179.766 242.714 180.063C243.196 180.359 243.571 180.776 243.837 181.312C244.104 181.848 244.237 182.474 244.237 183.19C244.237 183.903 244.104 184.526 243.837 185.06C243.571 185.593 243.196 186.008 242.714 186.305C242.232 186.601 241.667 186.749 241.02 186.749ZM241.024 185.621C241.444 185.621 241.791 185.511 242.067 185.289C242.343 185.067 242.546 184.772 242.678 184.404C242.813 184.035 242.88 183.629 242.88 183.186C242.88 182.745 242.813 182.341 242.678 181.972C242.546 181.601 242.343 181.303 242.067 181.078C241.791 180.853 241.444 180.741 241.024 180.741C240.602 180.741 240.251 180.853 239.973 181.078C239.697 181.303 239.492 181.601 239.357 181.972C239.225 182.341 239.159 182.745 239.159 183.186C239.159 183.629 239.225 184.035 239.357 184.404C239.492 184.772 239.697 185.067 239.973 185.289C240.251 185.511 240.602 185.621 241.024 185.621ZM248.321 186.745C247.764 186.745 247.267 186.603 246.829 186.318C246.395 186.03 246.053 185.621 245.805 185.091C245.559 184.558 245.436 183.918 245.436 183.172C245.436 182.426 245.561 181.788 245.809 181.258C246.061 180.728 246.405 180.322 246.843 180.04C247.28 179.758 247.776 179.618 248.33 179.618C248.759 179.618 249.103 179.69 249.364 179.833C249.628 179.974 249.831 180.139 249.975 180.328C250.122 180.516 250.236 180.683 250.317 180.826H250.397V177.407H251.741V186.61H250.429V185.536H250.317C250.236 185.683 250.119 185.851 249.966 186.039C249.816 186.228 249.61 186.393 249.346 186.534C249.082 186.675 248.741 186.745 248.321 186.745ZM248.618 185.599C249.004 185.599 249.331 185.497 249.598 185.293C249.867 185.087 250.071 184.801 250.209 184.435C250.35 184.07 250.42 183.644 250.42 183.159C250.42 182.679 250.351 182.26 250.213 181.901C250.075 181.541 249.873 181.261 249.607 181.06C249.34 180.859 249.01 180.759 248.618 180.759C248.213 180.759 247.876 180.864 247.607 181.074C247.337 181.283 247.133 181.569 246.996 181.932C246.861 182.295 246.793 182.703 246.793 183.159C246.793 183.62 246.862 184.035 247 184.404C247.138 184.772 247.342 185.064 247.611 185.28C247.884 185.493 248.219 185.599 248.618 185.599ZM256.634 186.749C255.954 186.749 255.368 186.604 254.877 186.314C254.388 186.02 254.011 185.608 253.744 185.078C253.481 184.544 253.349 183.92 253.349 183.204C253.349 182.497 253.481 181.874 253.744 181.334C254.011 180.795 254.382 180.374 254.859 180.072C255.338 179.769 255.898 179.618 256.539 179.618C256.929 179.618 257.306 179.682 257.672 179.811C258.037 179.94 258.366 180.142 258.656 180.418C258.947 180.693 259.176 181.051 259.344 181.492C259.511 181.929 259.595 182.461 259.595 183.087V183.563H254.108V182.557H258.279C258.279 182.203 258.207 181.89 258.063 181.617C257.919 181.342 257.717 181.125 257.456 180.966C257.199 180.807 256.896 180.728 256.548 180.728C256.171 180.728 255.841 180.821 255.56 181.006C255.281 181.189 255.065 181.429 254.913 181.725C254.763 182.019 254.688 182.338 254.688 182.682V183.469C254.688 183.93 254.769 184.323 254.931 184.646C255.095 184.97 255.325 185.217 255.618 185.388C255.912 185.556 256.255 185.639 256.647 185.639C256.902 185.639 257.134 185.604 257.344 185.532C257.554 185.457 257.735 185.346 257.888 185.199C258.04 185.052 258.157 184.871 258.238 184.655L259.51 184.884C259.408 185.259 259.225 185.587 258.962 185.869C258.701 186.147 258.373 186.364 257.978 186.52C257.585 186.673 257.137 186.749 256.634 186.749ZM266.444 186.763C266.007 186.763 265.611 186.682 265.258 186.52C264.904 186.355 264.624 186.117 264.417 185.806C264.214 185.494 264.112 185.112 264.112 184.66C264.112 184.27 264.187 183.95 264.336 183.698C264.486 183.446 264.688 183.247 264.943 183.1C265.198 182.954 265.482 182.843 265.797 182.768C266.111 182.693 266.432 182.636 266.759 182.597C267.172 182.549 267.508 182.51 267.765 182.48C268.023 182.447 268.21 182.395 268.327 182.323C268.444 182.251 268.502 182.134 268.502 181.972V181.941C268.502 181.549 268.391 181.244 268.17 181.029C267.951 180.813 267.624 180.705 267.19 180.705C266.738 180.705 266.381 180.806 266.12 181.006C265.863 181.204 265.685 181.424 265.586 181.667L264.323 181.379C264.473 180.96 264.691 180.621 264.979 180.364C265.27 180.103 265.604 179.914 265.981 179.797C266.359 179.678 266.756 179.618 267.172 179.618C267.448 179.618 267.74 179.651 268.048 179.717C268.36 179.779 268.651 179.896 268.92 180.067C269.193 180.238 269.416 180.482 269.59 180.8C269.764 181.114 269.85 181.523 269.85 182.026V186.61H268.538V185.666H268.484C268.397 185.84 268.267 186.011 268.093 186.179C267.92 186.347 267.696 186.486 267.424 186.597C267.151 186.708 266.825 186.763 266.444 186.763ZM266.736 185.684C267.108 185.684 267.425 185.611 267.689 185.464C267.955 185.317 268.158 185.126 268.296 184.889C268.436 184.649 268.507 184.393 268.507 184.121V183.231C268.459 183.279 268.366 183.324 268.228 183.366C268.093 183.404 267.939 183.439 267.765 183.469C267.591 183.496 267.422 183.521 267.257 183.545C267.093 183.566 266.955 183.584 266.844 183.599C266.583 183.632 266.345 183.688 266.129 183.766C265.917 183.843 265.746 183.956 265.617 184.103C265.491 184.246 265.428 184.438 265.428 184.678C265.428 185.01 265.551 185.262 265.797 185.433C266.043 185.601 266.356 185.684 266.736 185.684ZM276.813 181.393L275.595 181.608C275.544 181.453 275.463 181.304 275.352 181.164C275.244 181.023 275.097 180.907 274.912 180.818C274.726 180.728 274.494 180.683 274.215 180.683C273.835 180.683 273.517 180.768 273.262 180.939C273.008 181.107 272.88 181.324 272.88 181.59C272.88 181.821 272.966 182.007 273.137 182.148C273.307 182.289 273.583 182.404 273.963 182.494L275.06 182.745C275.695 182.892 276.168 183.118 276.48 183.424C276.792 183.73 276.947 184.127 276.947 184.615C276.947 185.028 276.828 185.397 276.588 185.72C276.351 186.041 276.02 186.293 275.595 186.475C275.172 186.658 274.682 186.749 274.125 186.749C273.352 186.749 272.722 186.585 272.233 186.255C271.745 185.923 271.445 185.451 271.335 184.84L272.633 184.642C272.714 184.98 272.88 185.237 273.132 185.41C273.384 185.581 273.712 185.666 274.116 185.666C274.557 185.666 274.909 185.575 275.172 185.392C275.436 185.207 275.568 184.98 275.568 184.714C275.568 184.498 275.487 184.317 275.325 184.17C275.166 184.023 274.922 183.912 274.593 183.837L273.424 183.581C272.78 183.434 272.304 183.201 271.995 182.88C271.69 182.56 271.537 182.154 271.537 181.662C271.537 181.255 271.651 180.898 271.878 180.593C272.106 180.287 272.421 180.049 272.822 179.878C273.223 179.705 273.683 179.618 274.202 179.618C274.948 179.618 275.535 179.779 275.963 180.103C276.392 180.424 276.675 180.853 276.813 181.393ZM284.996 179.708V180.786H281.226V179.708H284.996ZM282.237 178.054H283.58V184.583C283.58 184.844 283.619 185.04 283.697 185.172C283.775 185.301 283.875 185.389 283.998 185.437C284.124 185.482 284.26 185.505 284.407 185.505C284.515 185.505 284.61 185.497 284.69 185.482C284.771 185.467 284.834 185.455 284.879 185.446L285.122 186.556C285.044 186.586 284.933 186.616 284.789 186.646C284.645 186.679 284.466 186.697 284.25 186.7C283.896 186.706 283.567 186.643 283.261 186.511C282.956 186.379 282.709 186.176 282.52 185.9C282.331 185.624 282.237 185.278 282.237 184.862V178.054ZM287.974 182.512V186.61H286.631V177.407H287.956V180.831H288.042C288.203 180.459 288.451 180.164 288.783 179.946C289.116 179.727 289.55 179.618 290.086 179.618C290.56 179.618 290.973 179.715 291.327 179.91C291.683 180.104 291.959 180.395 292.154 180.782C292.351 181.165 292.45 181.644 292.45 182.22V186.61H291.107V182.381C291.107 181.875 290.976 181.483 290.716 181.204C290.455 180.922 290.092 180.782 289.628 180.782C289.31 180.782 289.026 180.849 288.774 180.984C288.526 181.119 288.329 181.316 288.186 181.577C288.045 181.835 287.974 182.146 287.974 182.512ZM297.218 186.749C296.538 186.749 295.952 186.604 295.461 186.314C294.973 186.02 294.595 185.608 294.329 185.078C294.065 184.544 293.933 183.92 293.933 183.204C293.933 182.497 294.065 181.874 294.329 181.334C294.595 180.795 294.967 180.374 295.443 180.072C295.923 179.769 296.483 179.618 297.124 179.618C297.513 179.618 297.891 179.682 298.256 179.811C298.622 179.94 298.95 180.142 299.241 180.418C299.531 180.693 299.76 181.051 299.928 181.492C300.096 181.929 300.18 182.461 300.18 183.087V183.563H294.693V182.557H298.863C298.863 182.203 298.791 181.89 298.647 181.617C298.504 181.342 298.301 181.125 298.041 180.966C297.783 180.807 297.48 180.728 297.133 180.728C296.755 180.728 296.426 180.821 296.144 181.006C295.866 181.189 295.65 181.429 295.497 181.725C295.347 182.019 295.272 182.338 295.272 182.682V183.469C295.272 183.93 295.353 184.323 295.515 184.646C295.68 184.97 295.909 185.217 296.203 185.388C296.496 185.556 296.839 185.639 297.232 185.639C297.486 185.639 297.719 185.604 297.928 185.532C298.138 185.457 298.319 185.346 298.472 185.199C298.625 185.052 298.742 184.871 298.823 184.655L300.094 184.884C299.992 185.259 299.81 185.587 299.546 185.869C299.285 186.147 298.957 186.364 298.562 186.52C298.169 186.673 297.722 186.749 297.218 186.749ZM307.604 186.745C307.046 186.745 306.549 186.603 306.112 186.318C305.677 186.03 305.336 185.621 305.087 185.091C304.841 184.558 304.719 183.918 304.719 183.172C304.719 182.426 304.843 181.788 305.092 181.258C305.343 180.728 305.688 180.322 306.125 180.04C306.563 179.758 307.058 179.618 307.613 179.618C308.041 179.618 308.386 179.69 308.646 179.833C308.91 179.974 309.114 180.139 309.257 180.328C309.404 180.516 309.518 180.683 309.599 180.826H309.68V177.407H311.024V186.61H309.711V185.536H309.599C309.518 185.683 309.401 185.851 309.248 186.039C309.099 186.228 308.892 186.393 308.628 186.534C308.365 186.675 308.023 186.745 307.604 186.745ZM307.9 185.599C308.287 185.599 308.613 185.497 308.88 185.293C309.15 185.087 309.353 184.801 309.491 184.435C309.632 184.07 309.702 183.644 309.702 183.159C309.702 182.679 309.633 182.26 309.496 181.901C309.358 181.541 309.156 181.261 308.889 181.06C308.622 180.859 308.293 180.759 307.9 180.759C307.496 180.759 307.159 180.864 306.889 181.074C306.619 181.283 306.416 181.569 306.278 181.932C306.143 182.295 306.076 182.703 306.076 183.159C306.076 183.62 306.145 184.035 306.282 184.404C306.42 184.772 306.624 185.064 306.894 185.28C307.166 185.493 307.502 185.599 307.9 185.599ZM315.916 186.749C315.236 186.749 314.65 186.604 314.159 186.314C313.671 186.02 313.293 185.608 313.027 185.078C312.763 184.544 312.631 183.92 312.631 183.204C312.631 182.497 312.763 181.874 313.027 181.334C313.293 180.795 313.665 180.374 314.141 180.072C314.621 179.769 315.181 179.618 315.822 179.618C316.211 179.618 316.589 179.682 316.954 179.811C317.32 179.94 317.648 180.142 317.938 180.418C318.229 180.693 318.458 181.051 318.626 181.492C318.794 181.929 318.878 182.461 318.878 183.087V183.563H313.391V182.557H317.561C317.561 182.203 317.489 181.89 317.345 181.617C317.201 181.342 316.999 181.125 316.739 180.966C316.481 180.807 316.178 180.728 315.831 180.728C315.453 180.728 315.124 180.821 314.842 181.006C314.564 181.189 314.348 181.429 314.195 181.725C314.045 182.019 313.97 182.338 313.97 182.682V183.469C313.97 183.93 314.051 184.323 314.213 184.646C314.378 184.97 314.607 185.217 314.901 185.388C315.194 185.556 315.537 185.639 315.93 185.639C316.184 185.639 316.417 185.604 316.626 185.532C316.836 185.457 317.017 185.346 317.17 185.199C317.323 185.052 317.44 184.871 317.521 184.655L318.792 184.884C318.69 185.259 318.508 185.587 318.244 185.869C317.983 186.147 317.655 186.364 317.26 186.52C316.867 186.673 316.42 186.749 315.916 186.749ZM325.541 181.393L324.323 181.608C324.272 181.453 324.191 181.304 324.081 181.164C323.973 181.023 323.826 180.907 323.64 180.818C323.454 180.728 323.222 180.683 322.944 180.683C322.563 180.683 322.246 180.768 321.991 180.939C321.736 181.107 321.609 181.324 321.609 181.59C321.609 181.821 321.694 182.007 321.865 182.148C322.036 182.289 322.311 182.404 322.692 182.494L323.788 182.745C324.424 182.892 324.897 183.118 325.209 183.424C325.52 183.73 325.676 184.127 325.676 184.615C325.676 185.028 325.556 185.397 325.316 185.72C325.08 186.041 324.749 186.293 324.323 186.475C323.901 186.658 323.411 186.749 322.854 186.749C322.081 186.749 321.45 186.585 320.962 186.255C320.473 185.923 320.174 185.451 320.063 184.84L321.362 184.642C321.443 184.98 321.609 185.237 321.861 185.41C322.112 185.581 322.44 185.666 322.845 185.666C323.285 185.666 323.637 185.575 323.901 185.392C324.164 185.207 324.296 184.98 324.296 184.714C324.296 184.498 324.215 184.317 324.054 184.17C323.895 184.023 323.651 183.912 323.321 183.837L322.153 183.581C321.509 183.434 321.032 183.201 320.724 182.88C320.418 182.56 320.265 182.154 320.265 181.662C320.265 181.255 320.379 180.898 320.607 180.593C320.834 180.287 321.149 180.049 321.55 179.878C321.952 179.705 322.412 179.618 322.93 179.618C323.676 179.618 324.263 179.779 324.692 180.103C325.12 180.424 325.403 180.853 325.541 181.393ZM327.153 186.61V179.708H328.497V186.61H327.153ZM327.832 178.642C327.598 178.642 327.397 178.565 327.23 178.409C327.065 178.25 326.982 178.061 326.982 177.843C326.982 177.621 327.065 177.432 327.23 177.276C327.397 177.118 327.598 177.038 327.832 177.038C328.065 177.038 328.265 177.118 328.43 177.276C328.597 177.432 328.681 177.621 328.681 177.843C328.681 178.061 328.597 178.25 328.43 178.409C328.265 178.565 328.065 178.642 327.832 178.642ZM333.199 189.342C332.65 189.342 332.179 189.271 331.783 189.127C331.391 188.983 331.07 188.793 330.821 188.556C330.573 188.319 330.387 188.06 330.264 187.779L331.419 187.302C331.5 187.434 331.608 187.573 331.743 187.72C331.88 187.87 332.066 187.997 332.3 188.102C332.537 188.207 332.841 188.259 333.212 188.259C333.721 188.259 334.142 188.135 334.475 187.886C334.807 187.641 334.974 187.248 334.974 186.709V185.352H334.888C334.807 185.499 334.691 185.662 334.538 185.842C334.388 186.021 334.181 186.177 333.918 186.309C333.654 186.441 333.311 186.507 332.889 186.507C332.343 186.507 331.852 186.379 331.415 186.125C330.98 185.867 330.636 185.488 330.381 184.988C330.129 184.485 330.003 183.866 330.003 183.132C330.003 182.398 330.128 181.769 330.376 181.244C330.628 180.72 330.973 180.319 331.41 180.04C331.847 179.758 332.343 179.618 332.898 179.618C333.326 179.618 333.672 179.69 333.936 179.833C334.199 179.974 334.405 180.139 334.551 180.328C334.701 180.516 334.816 180.683 334.897 180.826H334.996V179.708H336.313V186.763C336.313 187.356 336.175 187.843 335.899 188.223C335.624 188.604 335.251 188.886 334.781 189.068C334.313 189.251 333.786 189.342 333.199 189.342ZM333.185 185.392C333.572 185.392 333.898 185.302 334.165 185.123C334.434 184.94 334.638 184.679 334.776 184.341C334.917 183.999 334.987 183.59 334.987 183.114C334.987 182.65 334.918 182.241 334.781 181.887C334.643 181.534 334.44 181.258 334.174 181.06C333.907 180.859 333.578 180.759 333.185 180.759C332.781 180.759 332.444 180.864 332.174 181.074C331.904 181.28 331.701 181.562 331.563 181.919C331.428 182.275 331.361 182.673 331.361 183.114C331.361 183.566 331.43 183.963 331.567 184.305C331.705 184.646 331.909 184.913 332.179 185.105C332.451 185.296 332.787 185.392 333.185 185.392ZM339.459 182.512V186.61H338.115V179.708H339.405V180.831H339.49C339.649 180.465 339.898 180.172 340.236 179.95C340.578 179.728 341.008 179.618 341.526 179.618C341.996 179.618 342.408 179.717 342.762 179.914C343.115 180.109 343.389 180.4 343.584 180.786C343.779 181.173 343.876 181.65 343.876 182.22V186.61H342.532V182.381C342.532 181.881 342.402 181.49 342.142 181.208C341.881 180.924 341.523 180.782 341.067 180.782C340.756 180.782 340.479 180.849 340.236 180.984C339.996 181.119 339.806 181.316 339.665 181.577C339.528 181.835 339.459 182.146 339.459 182.512ZM263.045 201.61V194.708H264.335V195.831H264.42C264.564 195.451 264.799 195.154 265.126 194.941C265.452 194.725 265.843 194.618 266.299 194.618C266.76 194.618 267.146 194.725 267.458 194.941C267.773 195.157 268.005 195.454 268.155 195.831H268.226C268.391 195.462 268.653 195.169 269.013 194.95C269.372 194.728 269.801 194.618 270.298 194.618C270.924 194.618 271.435 194.814 271.831 195.206C272.229 195.599 272.428 196.191 272.428 196.981V201.61H271.085V197.107C271.085 196.64 270.957 196.301 270.703 196.092C270.448 195.882 270.144 195.777 269.79 195.777C269.353 195.777 269.013 195.912 268.77 196.182C268.528 196.448 268.406 196.791 268.406 197.211V201.61H267.067V197.022C267.067 196.647 266.95 196.346 266.716 196.119C266.483 195.891 266.179 195.777 265.804 195.777C265.55 195.777 265.314 195.844 265.099 195.979C264.886 196.111 264.714 196.295 264.582 196.532C264.453 196.769 264.389 197.043 264.389 197.354V201.61H263.045ZM277.204 201.749C276.524 201.749 275.938 201.604 275.447 201.314C274.959 201.02 274.581 200.608 274.315 200.078C274.051 199.544 273.919 198.92 273.919 198.204C273.919 197.497 274.051 196.874 274.315 196.334C274.581 195.795 274.953 195.374 275.429 195.072C275.908 194.769 276.469 194.618 277.11 194.618C277.499 194.618 277.877 194.682 278.242 194.811C278.608 194.94 278.936 195.142 279.226 195.418C279.517 195.693 279.746 196.051 279.914 196.492C280.082 196.929 280.166 197.461 280.166 198.087V198.563H274.679V197.557H278.849C278.849 197.203 278.777 196.89 278.633 196.617C278.489 196.342 278.287 196.125 278.027 195.966C277.769 195.807 277.466 195.728 277.119 195.728C276.741 195.728 276.412 195.821 276.13 196.006C275.851 196.189 275.636 196.429 275.483 196.725C275.333 197.019 275.258 197.338 275.258 197.682V198.469C275.258 198.93 275.339 199.323 275.501 199.646C275.666 199.97 275.895 200.217 276.189 200.388C276.482 200.556 276.825 200.639 277.218 200.639C277.472 200.639 277.704 200.604 277.914 200.532C278.124 200.457 278.305 200.346 278.458 200.199C278.611 200.052 278.728 199.871 278.808 199.655L280.08 199.884C279.978 200.259 279.796 200.587 279.532 200.869C279.271 201.147 278.943 201.364 278.548 201.52C278.155 201.673 277.707 201.749 277.204 201.749ZM284.24 201.745C283.683 201.745 283.186 201.603 282.748 201.318C282.314 201.03 281.973 200.621 281.724 200.091C281.478 199.558 281.355 198.918 281.355 198.172C281.355 197.426 281.48 196.788 281.728 196.258C281.98 195.728 282.325 195.322 282.762 195.04C283.199 194.758 283.695 194.618 284.249 194.618C284.678 194.618 285.022 194.69 285.283 194.833C285.547 194.974 285.75 195.139 285.894 195.328C286.041 195.516 286.155 195.683 286.236 195.826H286.317V192.407H287.66V201.61H286.348V200.536H286.236C286.155 200.683 286.038 200.851 285.885 201.039C285.735 201.228 285.529 201.393 285.265 201.534C285.001 201.675 284.66 201.745 284.24 201.745ZM284.537 200.599C284.924 200.599 285.25 200.497 285.517 200.293C285.786 200.087 285.99 199.801 286.128 199.435C286.269 199.07 286.339 198.644 286.339 198.159C286.339 197.679 286.27 197.26 286.132 196.901C285.995 196.541 285.792 196.261 285.526 196.06C285.259 195.859 284.93 195.759 284.537 195.759C284.133 195.759 283.796 195.864 283.526 196.074C283.256 196.283 283.053 196.569 282.915 196.932C282.78 197.295 282.713 197.703 282.713 198.159C282.713 198.62 282.781 199.035 282.919 199.404C283.057 199.772 283.261 200.064 283.53 200.28C283.803 200.493 284.139 200.599 284.537 200.599ZM289.578 201.61V194.708H290.922V201.61H289.578ZM290.257 193.642C290.023 193.642 289.822 193.565 289.654 193.409C289.49 193.25 289.407 193.061 289.407 192.843C289.407 192.621 289.49 192.432 289.654 192.276C289.822 192.118 290.023 192.038 290.257 192.038C290.49 192.038 290.69 192.118 290.854 192.276C291.022 192.432 291.106 192.621 291.106 192.843C291.106 193.061 291.022 193.25 290.854 193.409C290.69 193.565 290.49 193.642 290.257 193.642ZM297.102 198.748V194.708H298.45V201.61H297.129V200.415H297.057C296.898 200.783 296.644 201.09 296.293 201.336C295.946 201.579 295.513 201.7 294.994 201.7C294.551 201.7 294.158 201.603 293.817 201.408C293.478 201.21 293.212 200.918 293.017 200.532C292.825 200.145 292.729 199.667 292.729 199.098V194.708H294.073V198.936C294.073 199.407 294.203 199.781 294.464 200.06C294.725 200.338 295.063 200.478 295.48 200.478C295.731 200.478 295.981 200.415 296.23 200.289C296.482 200.163 296.69 199.973 296.855 199.718C297.023 199.464 297.105 199.14 297.102 198.748ZM300.256 201.61V194.708H301.545V195.831H301.631C301.775 195.451 302.01 195.154 302.336 194.941C302.663 194.725 303.054 194.618 303.509 194.618C303.971 194.618 304.357 194.725 304.669 194.941C304.983 195.157 305.215 195.454 305.365 195.831H305.437C305.602 195.462 305.864 195.169 306.223 194.95C306.583 194.728 307.011 194.618 307.509 194.618C308.135 194.618 308.646 194.814 309.041 195.206C309.44 195.599 309.639 196.191 309.639 196.981V201.61H308.295V197.107C308.295 196.64 308.168 196.301 307.913 196.092C307.659 195.882 307.354 195.777 307.001 195.777C306.564 195.777 306.223 195.912 305.981 196.182C305.738 196.448 305.617 196.791 305.617 197.211V201.61H304.278V197.022C304.278 196.647 304.161 196.346 303.927 196.119C303.693 195.891 303.389 195.777 303.015 195.777C302.76 195.777 302.525 195.844 302.309 195.979C302.097 196.111 301.924 196.295 301.792 196.532C301.664 196.769 301.599 197.043 301.599 197.354V201.61H300.256Z" fill="#121212"/>
<path d="M173.055 139.143L162.555 147.776C161.066 149.001 161.582 151.397 163.443 151.899L177.611 155.726C179.401 156.21 181.029 154.545 180.506 152.766L176.838 140.306C176.358 138.674 174.368 138.063 173.055 139.143Z" fill="#E56D23" stroke="#E56D23" stroke-width="3.1637" stroke-linecap="round"/>
<path d="M295.066 61.9184L283.67 54.5089C282.053 53.4577 279.924 54.6719 280.006 56.5986L280.627 71.2603C280.705 73.1132 282.784 74.1639 284.322 73.1284L295.098 65.8762C296.508 64.9267 296.492 62.8453 295.066 61.9184Z" fill="#E56D23" stroke="#E56D23" stroke-width="3.1637" stroke-linecap="round"/>
<path d="M409.802 155.555L413.686 142.529C414.237 140.681 412.47 138.982 410.645 139.605L396.758 144.348C395.002 144.947 394.583 147.238 396.011 148.421L406.015 156.705C407.324 157.789 409.316 157.185 409.802 155.555Z" fill="#E56D23" stroke="#E56D23" stroke-width="3.1637" stroke-linecap="round"/>
<path d="M389.42 260.736L401.679 254.862C403.418 254.029 403.489 251.579 401.802 250.646L388.959 243.544C387.337 242.647 385.358 243.874 385.441 245.727L386.024 258.702C386.1 260.401 387.886 261.471 389.42 260.736Z" fill="#E56D23" stroke="#E56D23" stroke-width="3.1637" stroke-linecap="round"/>
<path d="M284.619 311.531L295.726 319.367C297.301 320.479 299.475 319.347 299.467 317.418L299.402 302.744C299.394 300.889 297.357 299.76 295.78 300.737L284.738 307.575C283.292 308.47 283.229 310.55 284.619 311.531Z" fill="#E56D23" stroke="#E56D23" stroke-width="3.1637" stroke-linecap="round"/>
<path d="M181.48 250.513L182.787 264.043C182.973 265.963 185.249 266.871 186.705 265.607L197.785 255.984C199.185 254.768 198.711 252.488 196.943 251.93L184.556 248.022C182.934 247.51 181.317 248.821 181.48 250.513Z" fill="#E56D23" stroke="#E56D23" stroke-width="3.1637" stroke-linecap="round"/>
</svg>
