<svg width="84" height="88" viewBox="0 0 84 88" fill="none" xmlns="http://www.w3.org/2000/svg">
<path d="M32.2384 65.6839V54.1343C32.4185 51.6548 31.2367 48.2213 29.5 46.6958C27 44.4999 17.9484 44.9999 17.9484 54.1343L17.7527 76.0586C18.3791 84.6718 26.1048 87.6081 29.8894 87.9996H55.1415C62.032 87.06 65.1254 81.9314 65.7122 76.0586C65.7122 76.0586 66.8863 57.8534 65.7122 51.7852C64.5382 45.7171 58.8613 45.9128 56.5123 46.6958C53.173 47.8089 51.6175 51.002 51.618 54.1343C51.6184 57.2665 51.6184 61.9648 51.6184 65.6839C51.6184 69.403 46.6855 74.297 41.8308 74.297C36.9761 74.297 32.2384 70.4019 32.2384 65.6839Z" fill="#222222"/>
<path d="M45.0039 38.1314C45.0788 38.2477 45.0563 38.2872 44.9168 38.2329L45.0039 38.1314C44.5106 37.365 39.7958 33.2643 36.4796 30.6632C32.6598 27.667 25.758 28.4732 23.4626 31.3996C21.1673 34.3259 18.2676 38.0226 16.3349 40.4874C14.4021 42.9522 11.2075 44.5046 7.89311 43.3195C5.56156 42.4859 0.974045 39.1363 3.79538 33.6371C6.61671 28.1379 18.7763 14.5381 18.7763 14.5381C22.8625 10.2794 28.4617 8.15329 34.4632 11.6666L54.3323 27.2516L45.0039 38.1314Z" fill="#222222"/>
<path d="M59.3953 21.0102C56.9348 23.7991 49.9979 24.2055 46.3575 20.9938L37.8446 31.7564L47.2737 40.0751C53.0624 43.9291 58.775 42.1298 63.1003 38.1141C63.1003 38.1141 76.0248 25.2391 79.1589 19.912C82.293 14.5849 77.9066 10.976 75.627 10.0091C72.3866 8.63463 69.1077 9.99998 67.0358 12.3491C64.964 14.6982 61.8557 18.2213 59.3953 21.0102Z" fill="#222222"/>
<circle cx="42.4811" cy="54.4811" r="5.48109" fill="#222222"/>
</svg>
