<svg width="397" height="245" viewBox="0 0 397 245" fill="none" xmlns="http://www.w3.org/2000/svg">
<path d="M122.72 200.8C117.515 200.8 111.797 199.435 105.568 196.704C99.3387 194.059 93.4507 190.773 87.904 186.848C82.3573 183.008 78.048 179.339 74.976 175.84C71.7333 172.341 68.832 169.653 66.272 167.776C63.7973 165.813 60.9813 164.832 57.824 164.832C56.8853 164.832 55.9893 165.045 55.136 165.472C54.2827 165.813 53.472 166.197 52.704 166.624C52.0213 167.051 51.552 167.307 51.296 167.392C49.0773 168.843 47.4133 169.568 46.304 169.568C44.768 169.568 44 168.8 44 167.264C44 166.325 45.4507 163.765 48.352 159.584C51.2533 155.403 55.4347 149.643 60.896 142.304L62.688 139.872L82.656 112.48C100.149 87.9893 113.589 67.3813 122.976 50.656C106.933 51.68 92.896 52.192 80.864 52.192C73.0987 52.192 67.424 51.936 63.84 51.424C62.6453 50.9973 62.048 50.1867 62.048 48.992C62.048 46.7733 63.328 45.664 65.888 45.664C70.8373 45.7493 74.8053 45.8347 77.792 45.92C80.864 46.0053 83.2533 46.0907 84.96 46.176L98.4 46.432C101.045 46.432 103.392 46.3467 105.44 46.176C107.573 46.0053 109.835 45.7493 112.224 45.408C117.685 44.8107 122.336 44.512 126.176 44.512C129.675 44.512 131.424 45.3653 131.424 47.072C131.424 48.2667 127.413 55.1787 119.392 67.808C111.371 80.352 101.344 95.2853 89.312 112.608C77.28 129.931 65.504 146.229 53.984 161.504C56.2027 159.968 58.592 159.2 61.152 159.2C65.248 159.2 71.2213 162.997 79.072 170.592C95.2853 186.635 110.688 194.656 125.28 194.656C130.144 194.656 134.667 193.845 138.848 192.224C143.115 190.688 146.827 188.683 149.984 186.208C150.325 185.952 151.136 185.227 152.416 184.032C153.781 182.923 155.061 181.984 156.256 181.216C157.451 180.533 158.432 180.192 159.2 180.192C160.395 180.192 160.992 180.875 160.992 182.24C160.992 183.605 159.968 185.184 157.92 186.976C153.227 190.987 147.68 194.272 141.28 196.832C134.88 199.477 128.693 200.8 122.72 200.8Z" fill="#1C1C1C"/>
<path d="M153.618 170.336C149.095 170.336 145.042 169.227 141.458 167.008C137.874 164.789 135.101 161.803 133.138 158.048C131.175 154.293 130.194 150.197 130.194 145.76C130.194 144.053 131.303 136.757 133.522 123.872C135.741 110.987 138.301 97.2907 141.202 82.784C144.189 68.192 146.877 56.5867 149.266 47.968C149.437 47.3707 149.778 46.9013 150.29 46.56C150.887 46.2187 151.485 46.048 152.082 46.048C153.874 46.048 154.77 46.7733 154.77 48.224C151.783 59.744 147.815 78.0053 142.866 103.008C138.002 128.011 135.57 142.688 135.57 147.04C135.57 152.075 137.191 156.256 140.434 159.584C143.677 162.827 148.114 164.448 153.746 164.448C160.658 164.448 166.205 162.869 170.386 159.712C174.567 156.469 177.597 152.117 179.474 146.656C182.546 137.44 185.106 128.565 187.154 120.032C189.287 111.499 191.677 101.131 194.322 88.928C194.663 87.5627 195.73 82.7413 197.522 74.464C199.399 66.1013 201.405 58.2933 203.538 51.04C203.965 49.5893 204.605 48.3947 205.458 47.456C206.397 46.5173 207.25 46.048 208.018 46.048C209.554 46.048 210.322 46.7733 210.322 48.224C210.322 48.3093 209.938 49.6747 209.17 52.32C207.207 58.0373 205.543 63.7547 204.178 69.472C203.325 72.8853 201.789 79.7973 199.57 90.208C196.242 105.909 193.213 119.051 190.482 129.632C187.751 140.213 184.85 148.32 181.778 153.952C175.975 164.875 166.589 170.336 153.618 170.336Z" fill="#1C1C1C"/>
<path d="M278.52 200.8C273.315 200.8 267.597 199.435 261.368 196.704C255.139 194.059 249.251 190.773 243.704 186.848C238.157 183.008 233.848 179.339 230.776 175.84C227.533 172.341 224.632 169.653 222.072 167.776C219.597 165.813 216.781 164.832 213.624 164.832C212.685 164.832 211.789 165.045 210.936 165.472C210.083 165.813 209.272 166.197 208.504 166.624C207.821 167.051 207.352 167.307 207.096 167.392C204.877 168.843 203.213 169.568 202.104 169.568C200.568 169.568 199.8 168.8 199.8 167.264C199.8 166.325 201.251 163.765 204.152 159.584C207.053 155.403 211.235 149.643 216.696 142.304L218.488 139.872L238.456 112.48C255.949 87.9893 269.389 67.3813 278.776 50.656C262.733 51.68 248.696 52.192 236.664 52.192C228.899 52.192 223.224 51.936 219.64 51.424C218.445 50.9973 217.848 50.1867 217.848 48.992C217.848 46.7733 219.128 45.664 221.688 45.664C226.637 45.7493 230.605 45.8347 233.592 45.92C236.664 46.0053 239.053 46.0907 240.76 46.176L254.2 46.432C256.845 46.432 259.192 46.3467 261.24 46.176C263.373 46.0053 265.635 45.7493 268.024 45.408C273.485 44.8107 278.136 44.512 281.976 44.512C285.475 44.512 287.224 45.3653 287.224 47.072C287.224 48.2667 283.213 55.1787 275.192 67.808C267.171 80.352 257.144 95.2853 245.112 112.608C233.08 129.931 221.304 146.229 209.784 161.504C212.003 159.968 214.392 159.2 216.952 159.2C221.048 159.2 227.021 162.997 234.872 170.592C251.085 186.635 266.488 194.656 281.08 194.656C285.944 194.656 290.467 193.845 294.648 192.224C298.915 190.688 302.627 188.683 305.784 186.208C306.125 185.952 306.936 185.227 308.216 184.032C309.581 182.923 310.861 181.984 312.056 181.216C313.251 180.533 314.232 180.192 315 180.192C316.195 180.192 316.792 180.875 316.792 182.24C316.792 183.605 315.768 185.184 313.72 186.976C309.027 190.987 303.48 194.272 297.08 196.832C290.68 199.477 284.493 200.8 278.52 200.8Z" fill="#1C1C1C"/>
<path d="M343.164 131.04C343.761 131.125 345.084 131.296 347.132 131.552C349.265 131.808 350.631 132.192 351.228 132.704C351.825 133.131 352.124 133.771 352.124 134.624C352.124 135.392 351.697 136.16 350.844 136.928C350.076 137.611 349.265 137.909 348.412 137.824L344.06 137.312C344.401 140.811 345.084 146.656 346.108 154.848C347.132 162.955 347.729 166.795 347.9 166.368C347.815 167.221 347.431 167.947 346.748 168.544C346.065 169.141 345.34 169.44 344.572 169.44C343.036 169.44 341.756 167.264 340.732 162.912C340.22 160.437 339.665 156.043 339.068 149.728C338.3 142.304 337.831 137.909 337.66 136.544C330.663 135.947 321.703 135.563 310.78 135.392L303.1 135.264C292.092 151.819 281.724 162.357 271.996 166.88C268.753 168.501 266.193 169.312 264.316 169.312C262.097 169.312 260.988 168.245 260.988 166.112C260.988 165.088 261.372 164.192 262.14 163.424C262.908 162.571 263.676 162.144 264.444 162.144C265.212 162.144 265.852 162.485 266.364 163.168C272.167 160.864 277.329 157.536 281.852 153.184C286.375 148.747 291.367 142.731 296.828 135.136L291.708 134.88C287.697 134.709 284.839 134.496 283.132 134.24C281.425 133.899 280.572 133.173 280.572 132.064C280.572 131.211 280.913 130.4 281.596 129.632C282.364 128.864 283.217 128.395 284.156 128.224C286.289 128.565 291.836 128.949 300.796 129.376C308.988 117.088 317.436 102.539 326.14 85.728C334.844 68.832 340.177 55.9467 342.14 47.072C342.481 46.2187 343.036 45.4933 343.804 44.896C344.572 44.2987 345.297 44 345.98 44C346.577 44 347.132 44.4693 347.644 45.408C348.241 46.3467 348.54 47.2853 348.54 48.224C348.54 49.0773 348.327 49.7173 347.9 50.144C346.535 55.1787 345.127 64.3947 343.676 77.792C342.311 91.1893 341.628 100.704 341.628 106.336C341.628 113.077 342.14 121.312 343.164 131.04ZM335.996 107.744C335.996 98.1013 336.892 86.496 338.684 72.928C334.076 82.5707 328.743 92.7253 322.684 103.392C316.625 114.059 311.42 122.763 307.068 129.504C318.759 129.504 328.743 129.803 337.02 130.4C336.337 124.512 335.996 116.96 335.996 107.744Z" fill="#1C1C1C"/>
</svg>
